<?xml version="1.0" encoding="UTF-8"?>
<svg version="1.1" xmlns="http://www.w3.org/2000/svg" width="2000" height="1928">
<path d="M0 0 C2.65527344 1.25244141 2.65527344 1.25244141 5.359375 2.8515625 C6.88884766 3.74584961 6.88884766 3.74584961 8.44921875 4.65820312 C9.53847656 5.30724609 10.62773438 5.95628906 11.75 6.625 C12.90697352 7.30502178 14.06453713 7.98404047 15.22265625 8.66210938 C17.62665148 10.07067324 20.02805773 11.48350641 22.42773438 12.89941406 C27.9283488 16.14016978 33.46603409 19.31666323 39 22.5 C41.16684034 23.74969892 43.3335065 24.99969989 45.5 26.25 C47.10875 27.178125 47.10875 27.178125 48.75 28.125 C136.5 78.75 136.5 78.75 139.75512695 80.62915039 C141.90332686 81.867707 144.05288698 83.10390766 146.20385742 84.33764648 C151.30060284 87.2648392 156.37975214 90.21471421 161.4133606 93.24905396 C163.79868125 94.68501707 166.19181793 96.10765308 168.58569336 97.52929688 C170.27782587 98.54175337 171.95840861 99.57343389 173.63867188 100.60546875 C174.66154297 101.21132812 175.68441406 101.8171875 176.73828125 102.44140625 C177.63587158 102.98482666 178.53346191 103.52824707 179.45825195 104.08813477 C181.97752139 105.26532799 181.97752139 105.26532799 184.53491211 104.31420898 C185.34839111 103.88052002 186.16187012 103.44683105 187 103 C187.76473633 102.61392578 188.52947266 102.22785156 189.31738281 101.83007812 C190.4983252 101.1871582 190.4983252 101.1871582 191.703125 100.53125 C193.03585449 99.80651489 193.03585449 99.80651489 194.39550781 99.06713867 C195.33749023 98.54998291 196.27947266 98.03282715 197.25 97.5 C198.72871582 96.69042847 198.72871582 96.69042847 200.23730469 95.86450195 C207.35640692 91.9478419 214.37982679 87.89427045 221.36328125 83.7421875 C227.02478771 80.38062887 232.7321213 77.09885534 238.4375 73.8125 C240.09797363 72.85573364 240.09797363 72.85573364 241.79199219 71.87963867 C244.06287274 70.571414 246.33386985 69.26339163 248.60498047 67.95556641 C255.14308436 64.18955086 261.67761234 60.41733505 268.21264648 56.64599609 C273.23540277 53.74771095 278.25870204 50.85038446 283.28442383 47.95724487 C285.05045522 46.94052802 286.81627431 45.92344342 288.58203125 44.90625 C290.78734155 43.63599127 292.99304216 42.36640982 295.19921875 41.09765625 C296.20597656 40.51757812 297.21273438 39.9375 298.25 39.33984375 C299.71095093 38.50622314 299.71095093 38.50622314 301.20141602 37.65576172 C303.02039758 36.5795746 304.81063119 35.45267912 306.56225586 34.27001953 C312.89668417 30.05292266 317.97878792 28.90239516 325.5625 29 C327.14828857 29.01824829 327.14828857 29.01824829 328.76611328 29.03686523 C338.63254961 29.48724714 344.71512466 32.77800156 352.60107422 38.37402344 C357.36726162 41.60451479 362.43239098 44.34812693 367.4375 47.1875 C369.687073 48.48155287 371.93576193 49.77714373 374.18359375 51.07421875 C375.31265137 51.72438965 376.44170898 52.37456055 377.60498047 53.04443359 C383.0716998 56.19332054 388.53574887 59.34683264 394 62.5 C396.16665311 63.7500235 398.33331979 65.00002347 400.5 66.25 C404.83333333 68.75 409.16666667 71.25 413.5 73.75 C414.57266113 74.36883057 415.64532227 74.98766113 416.75048828 75.62524414 C418.91557071 76.87435518 421.08060982 78.12354129 423.24560547 79.37280273 C428.68615706 82.51202309 434.12747216 85.64990563 439.5703125 88.78515625 C450.02206199 94.80747329 460.46299548 100.84669337 470.875 106.9375 C479.55262241 112.01275123 488.26605568 117.02258767 497 122 C506.72115617 127.5400173 516.40894658 133.13374809 526.06689453 138.78344727 C536.59084625 144.93766742 547.15380137 151.02369996 557.71777344 157.10888672 C564.22076271 160.85569979 570.72107578 164.6071563 577.22094727 168.359375 C582.79635205 171.57736557 588.37437171 174.79070589 593.95703125 177.99609375 C599.41288643 181.12957877 604.85935279 184.27881973 610.29980469 187.43896484 C612.56971604 188.75124452 614.84829829 190.04546453 617.1328125 191.33203125 C635.29727085 201.87428781 635.29727085 201.87428781 637.99292564 211.57213402 C638.35101815 215.76542259 638.36494516 219.82739906 638.2487793 224.02807617 C638.24567045 225.6158832 638.24742995 227.203706 638.25364685 228.79150391 C638.25678335 233.07105375 638.19245298 237.34716241 638.11533332 241.6259172 C638.04622804 246.10869153 638.04008092 250.59155852 638.02705383 255.07478333 C637.9929626 263.55021307 637.90283372 272.02406852 637.79220945 280.49880725 C637.6689468 290.15282708 637.60870015 299.80692501 637.55355966 309.46153677 C637.43880486 329.30856743 637.24552016 349.15418426 637 369 C637.93902161 369.30372025 638.87804321 369.60744049 639.84552002 369.92036438 C642.82083034 370.93867834 645.22694305 372.12870818 647.921875 373.73046875 C648.85112793 374.27823975 649.78038086 374.82601074 650.73779297 375.39038086 C651.73182129 375.98343018 652.72584961 376.57647949 653.75 377.1875 C655.91367549 378.46419778 658.07775166 379.74021671 660.2421875 381.015625 C661.35819336 381.67498047 662.47419922 382.33433594 663.62402344 383.01367188 C669.0212633 386.18925356 674.44764 389.3137656 679.875 392.4375 C682.05991376 393.69658348 684.24480949 394.95569823 686.4296875 396.21484375 C687.51475586 396.83987793 688.59982422 397.46491211 689.71777344 398.10888672 C695.14659942 401.23680148 700.57319281 404.36858448 706 407.5 C708.16665583 408.75001879 710.3333225 410.00001878 712.5 411.25 C734.16666667 423.75 755.83333333 436.25 777.5 448.75 C778.5739502 449.36955566 779.64790039 449.98911133 780.75439453 450.62744141 C782.9065213 451.86911527 785.05854073 453.11097522 787.21044922 454.35302734 C792.25030977 457.26166823 797.29117492 460.16851898 802.33599854 463.06854248 C804.11749578 464.09275665 805.89864322 465.11757651 807.6796875 466.14257812 C809.91076625 467.42633375 812.14249573 468.70895939 814.375 469.99023438 C815.38820313 470.57353516 816.40140625 471.15683594 817.4453125 471.7578125 C818.32719238 472.2645752 819.20907227 472.77133789 820.11767578 473.29345703 C821.06884277 473.85661621 822.02000977 474.41977539 823 475 C823.65922628 475.31029921 824.31845256 475.62059842 824.99765539 475.94030064 C830.54561655 478.80865706 830.54561655 478.80865706 831.73608685 481.92993796 C832.01168913 484.35367224 832.02834756 486.66643324 831.96203613 489.10517883 C831.97228923 490.48366061 831.97228923 490.48366061 831.98274946 491.88999051 C831.99593415 494.97130322 831.95192643 498.04913523 831.90820312 501.13012695 C831.90594667 503.33773211 831.90721292 505.54534328 831.91174316 507.75294495 C831.91404138 513.74885002 831.86696221 519.74347842 831.8111515 525.73908639 C831.76118808 532.00374163 831.75644537 538.26842517 831.74694824 544.5332489 C831.72489726 555.0491499 831.67490627 565.56465549 831.60351562 576.08032227 C831.53006493 586.91070208 831.47344693 597.74095455 831.43945312 608.5715332 C831.43735134 609.2393066 831.43524955 609.90707999 831.43308407 610.59508894 C831.42264365 613.94516692 831.41253401 617.29524581 831.40258884 620.6453253 C831.31893674 648.43054345 831.17819583 676.21523876 831 704 C832.14021606 704.44327637 832.14021606 704.44327637 833.3034668 704.89550781 C836.6274125 706.25698634 839.69846587 707.97408348 842.8125 709.75 C843.49844238 710.13849121 844.18438477 710.52698242 844.89111328 710.92724609 C852.11273701 715.03378361 859.28177913 719.23114599 866.45288086 723.42504883 C877.17414802 729.69446918 887.93376307 735.89661586 898.69580078 742.09570312 C902.02614252 744.01506662 905.35509148 745.93682353 908.68359375 747.859375 C909.78219727 748.49375488 910.88080078 749.12813477 912.01269531 749.78173828 C914.19592454 751.04263554 916.37887176 752.30402122 918.56152344 753.56591797 C923.70099767 756.53401531 928.8483072 759.48595787 934.01953125 762.3984375 C935.44108521 763.20148315 935.44108521 763.20148315 936.89135742 764.02075195 C938.64270838 765.008497 940.39656255 765.99182461 942.15356445 766.96948242 C947.43653978 769.95240893 952.28706128 773.18195426 957 777 C957.69169497 777.51172339 958.38338995 778.02344678 959.09604537 778.55067694 C962.51437977 781.41071538 964.67507069 783.66098348 965.74382615 788.06526828 C966.03859001 791.87108886 966.07753878 795.63523525 966.02932739 799.44784546 C966.03998669 800.92020498 966.05412295 802.39254271 966.0714215 803.8648392 C966.10862515 807.89829027 966.09608657 811.93027033 966.07511544 815.96378183 C966.06111603 820.31846759 966.09313868 824.6728534 966.11911011 829.02745056 C966.16237697 837.55367824 966.16213998 846.07937193 966.14585902 854.6056733 C966.1332543 861.53670434 966.1355373 868.46757976 966.14840317 875.39860916 C966.15020648 876.38544198 966.15200979 877.37227479 966.15386774 878.38901163 C966.15757019 880.39383109 966.16129531 882.3986505 966.16504286 884.40346988 C966.19819563 903.20065209 966.18076487 921.99753403 966.1470717 940.79469819 C966.1176828 957.98542417 966.14692713 975.17545086 966.20461203 992.36608677 C966.26342304 1010.02403841 966.28533772 1027.68166745 966.26624763 1045.33971274 C966.26420256 1047.33772821 966.26221334 1049.33574373 966.26028061 1051.33375931 C966.25932783 1052.31677965 966.25837505 1053.29979999 966.2573934 1054.31260883 C966.25306783 1061.23262282 966.27265854 1068.15233091 966.30182266 1075.07227707 C966.33688661 1083.50972915 966.33661246 1091.94629009 966.29111935 1100.38370727 C966.26884682 1104.68721375 966.26247376 1108.9891509 966.29972076 1113.29258919 C966.33341585 1117.23646802 966.32053107 1121.17741457 966.27128719 1125.12110467 C966.26154549 1126.54363235 966.26848723 1127.96639841 966.29426207 1129.38872592 C966.39458709 1135.35810032 966.37422633 1140.08431261 962.81774497 1145.04208875 C958.28949093 1149.66235336 953.61340351 1153.2973539 947.875 1156.25 C946.48680442 1156.9868076 945.10018819 1157.72659559 943.71484375 1158.46875 C942.9657373 1158.86578125 942.21663086 1159.2628125 941.44482422 1159.671875 C936.7075559 1162.24534611 932.08265268 1165.01492695 927.4375 1167.75 C919.4966148 1172.40314597 911.52275326 1176.98952787 903.5 1181.5 C894.73791151 1186.42764803 886.03982216 1191.455579 877.3671875 1196.53881836 C871.77595927 1199.81112285 866.17049147 1203.05626097 860.54296875 1206.265625 C859.59953362 1206.80367012 859.59953362 1206.80367012 858.63703918 1207.35258484 C855.57260459 1209.09909749 852.50653557 1210.84268441 849.4387207 1212.58325195 C848.32456787 1213.21706787 847.21041504 1213.85088379 846.0625 1214.50390625 C845.08410156 1215.05892822 844.10570312 1215.6139502 843.09765625 1216.18579102 C842.07542969 1216.78447998 841.05320312 1217.38316895 840 1218 C838.99860166 1218.47295347 838.99860166 1218.47295347 837.97697306 1218.95546156 C833.75413027 1221.07865891 833.75413027 1221.07865891 831.28644085 1224.90647972 C831.04266311 1227.29793867 831.05961094 1229.57102001 831.16149902 1231.9730072 C831.16751365 1232.87803358 831.17352828 1233.78305996 831.17972517 1234.71551138 C831.20905837 1237.75084804 831.29534934 1240.78192772 831.38085938 1243.81616211 C831.4125435 1245.99114904 831.44035661 1248.16619531 831.46458435 1250.34127808 C831.52291924 1255.02793893 831.60443524 1259.71343307 831.70252991 1264.39942741 C831.85333985 1271.81752384 831.92617763 1279.23509824 831.98327637 1286.6544342 C832.1553683 1307.75250525 832.39196618 1328.84782304 832.79833984 1349.94262695 C833.02210793 1361.59239269 833.15947496 1373.23988857 833.20179415 1384.89176375 C833.2280687 1391.05586859 833.29924561 1397.21219878 833.47819519 1403.37391472 C834.56871048 1442.04528355 834.56871048 1442.04528355 828.64773178 1449.40163231 C823.07601482 1454.49391543 816.99081136 1457.12841114 809.7891655 1459.15921402 C806.03735153 1460.29018763 803.17045966 1462.01128862 799.8828125 1464.12109375 C797.96389348 1465.22717308 796.04463128 1466.33265727 794.125 1467.4375 C791.94009462 1468.69659802 789.75519908 1469.95571311 787.5703125 1471.21484375 C786.48524414 1471.83987793 785.40017578 1472.46491211 784.28222656 1473.10888672 C778.85340058 1476.23680148 773.42680719 1479.36858448 768 1482.5 C765.83334417 1483.75001879 763.6666775 1485.00001878 761.5 1486.25 C760.4275 1486.86875 759.355 1487.4875 758.25 1488.125 C722.50000001 1508.74999999 722.50000001 1508.74999999 719.24951172 1510.62524414 C717.08442929 1511.87435518 714.91939018 1513.12354129 712.75439453 1514.37280273 C707.31384294 1517.51202309 701.87252784 1520.64990563 696.4296875 1523.78515625 C685.68691081 1529.97511032 674.95566185 1536.18353895 664.25 1542.4375 C661.36386668 1544.12170268 658.47748486 1545.80547752 655.59082031 1547.48876953 C653.93865619 1548.45248004 652.28691817 1549.41692166 650.63574219 1550.38232422 C648.63464783 1551.55090222 646.63050634 1552.71401569 644.625 1553.875 C643.03558594 1554.79925781 643.03558594 1554.79925781 641.4140625 1555.7421875 C639 1557 639 1557 637 1557 C637.00645255 1557.82237656 637.0129051 1558.64475311 637.01955318 1559.49205017 C637.17423528 1579.51487136 637.29002431 1599.53758937 637.3626852 1619.56088257 C637.39875881 1629.2440946 637.44792791 1638.92690747 637.52807617 1648.60986328 C637.59791142 1657.05090702 637.6430229 1665.49166165 637.65861946 1673.93298626 C637.66773467 1678.4015603 637.68911081 1682.86930735 637.7401104 1687.33761597 C637.78776241 1691.54688614 637.80225355 1695.75499185 637.79175377 1699.96450615 C637.79367345 1701.50604019 637.80751748 1703.04761472 637.83443832 1704.58891487 C638.05157595 1717.66644783 638.05157595 1717.66644783 633.67738342 1722.79077148 C631.85807896 1724.50511169 631.85807896 1724.50511169 630 1726 C629.36673514 1726.53709091 628.73347029 1727.07418182 628.08101559 1727.62754822 C622.84293923 1731.92970572 616.81081814 1735.12795075 610.918396 1738.43191528 C609.07443221 1739.46585414 607.23429579 1740.50633142 605.39501953 1741.54858398 C603.48124596 1742.63300039 601.56728384 1743.71706309 599.65219116 1744.79914856 C593.37103767 1748.34873716 587.12066057 1751.95086228 580.875 1755.5625 C578.72918858 1756.80212126 576.58335523 1758.04170457 574.4375 1759.28125 C572.84808594 1760.19970703 572.84808594 1760.19970703 571.2265625 1761.13671875 C567.96475993 1763.0203505 564.70138156 1764.90122321 561.4375 1766.78125 C550.98287049 1772.80439739 540.53951558 1778.84522445 530.125 1784.9375 C520.85500223 1790.35921178 511.54168248 1795.70204915 502.21154785 1801.01922607 C493.0871716 1806.22045129 483.99867226 1811.48027878 474.93310547 1816.78344727 C464.40915375 1822.93766742 453.84619863 1829.02369996 443.28222656 1835.10888672 C437.85340062 1838.23680146 432.42677993 1841.36853731 427 1844.5 C420.47766725 1848.26363919 413.95486238 1852.02644622 407.4296875 1855.78515625 C395.84245911 1862.46170949 384.27329681 1869.16736994 372.72875977 1875.91748047 C365.0745206 1880.38719314 357.38892732 1884.80009039 349.68432617 1889.18237305 C348.87713135 1889.64168213 348.06993652 1890.10099121 347.23828125 1890.57421875 C346.48345459 1890.99727295 345.72862793 1891.42032715 344.95092773 1891.85620117 C342.87414921 1893.02510273 342.87414921 1893.02510273 340.6171875 1894.78125 C332.61316958 1898.50849417 319.64801179 1897.80545995 311.39257812 1895.16650391 C306.64556778 1893.06311416 302.35529471 1890.30435232 298.07080078 1887.38916016 C294.80821739 1885.20051367 291.40155914 1883.27478057 288 1881.3125 C286.59162154 1880.48056405 285.18410497 1879.64716771 283.77734375 1878.8125 C278.06313156 1875.43753196 272.31262377 1872.12579204 266.5625 1868.8125 C264.90250977 1867.85597534 264.90250977 1867.85597534 263.20898438 1866.88012695 C260.9377675 1865.57175828 258.66644499 1864.26357293 256.39501953 1862.95556641 C249.85179882 1859.18660352 243.31219766 1855.41136501 236.77197266 1851.63720703 C231.24376084 1848.44737294 225.71457475 1845.2592492 220.18359375 1842.07421875 C219.06307617 1841.42831787 217.94255859 1840.78241699 216.78808594 1840.11694336 C214.58054097 1838.84572302 212.3715882 1837.57694381 210.16113281 1836.31079102 C205.32591645 1833.53429013 200.52311508 1830.73074727 195.80078125 1827.765625 C195.02226807 1827.28327393 194.24375488 1826.80092285 193.44165039 1826.30395508 C192.03263722 1825.4254604 190.63359768 1824.53064892 189.24780273 1823.6159668 C186.3842899 1821.84109326 184.60857038 1820.91965503 181.21875 1821.3671875 C176.44616987 1823.78822936 171.84496331 1826.44608932 167.25 1829.1875 C165.08632451 1830.46419778 162.92224834 1831.74021671 160.7578125 1833.015625 C159.64180664 1833.67498047 158.52580078 1834.33433594 157.37597656 1835.01367188 C151.9787367 1838.18925356 146.55236 1841.3137656 141.125 1844.4375 C138.94008624 1845.69658348 136.75519051 1846.95569823 134.5703125 1848.21484375 C133.48524414 1848.83987793 132.40017578 1849.46491211 131.28222656 1850.10888672 C125.85340058 1853.23680148 120.42680719 1856.36858448 115 1859.5 C112.83334417 1860.75001879 110.6666775 1862.00001878 108.5 1863.25 C107.4275 1863.86875 106.355 1864.4875 105.25 1865.125 C84.66666667 1877 64.08333333 1888.875 43.5 1900.75 C42.42588867 1901.37003906 41.35177734 1901.99007813 40.24511719 1902.62890625 C38.09598426 1903.86806926 35.9456082 1905.10507894 33.79394531 1906.33984375 C28.70898524 1909.26141814 23.63959655 1912.20344899 18.61242676 1915.2232666 C16.23637058 1916.64877251 13.85313376 1918.06201836 11.46923828 1919.47436523 C9.78875017 1920.47688307 8.11882645 1921.49704276 6.44921875 1922.51757812 C5.42957031 1923.12021484 4.40992188 1923.72285156 3.359375 1924.34375 C2.46702148 1924.88193359 1.57466797 1925.42011719 0.65527344 1925.97460938 C-2.73502253 1927.28384467 -4.52300494 1926.97847078 -8 1926 C-10.65527344 1924.74755859 -10.65527344 1924.74755859 -13.359375 1923.1484375 C-14.88884766 1922.25415039 -14.88884766 1922.25415039 -16.44921875 1921.34179688 C-17.53847656 1920.69275391 -18.62773438 1920.04371094 -19.75 1919.375 C-20.90697352 1918.69497822 -22.06453713 1918.01595953 -23.22265625 1917.33789062 C-25.62665148 1915.92932676 -28.02805773 1914.51649359 -30.42773438 1913.10058594 C-35.9283488 1909.85983022 -41.46603409 1906.68333677 -47 1903.5 C-49.16684034 1902.25030108 -51.3335065 1901.00030011 -53.5 1899.75 C-54.5725 1899.13125 -55.645 1898.5125 -56.75 1897.875 C-144.5 1847.25 -144.5 1847.25 -147.75341797 1845.36987305 C-149.90505816 1844.13063314 -152.06030728 1842.89763675 -154.21923828 1841.67114258 C-159.30128844 1838.7739817 -164.32413125 1835.82897521 -169.23284912 1832.64779663 C-171.54046547 1831.15767288 -173.86959493 1829.70323865 -176.20117188 1828.25097656 C-177.83070299 1827.21564436 -179.42780599 1826.12981949 -181.0234375 1825.04296875 C-184.06265735 1823.16303894 -186.51785109 1821.8156359 -190 1821 C-194.59161454 1822.11037353 -198.09567646 1824.40329023 -202 1827 C-203.8307637 1828.04944235 -205.66664199 1829.09001853 -207.5078125 1830.12109375 C-209.38231326 1831.22298949 -211.25463557 1832.32859775 -213.125 1833.4375 C-215.23402286 1834.67768236 -217.34341061 1835.91724438 -219.453125 1837.15625 C-220.53142578 1837.79046875 -221.60972656 1838.4246875 -222.72070312 1839.078125 C-228.08994733 1842.22484108 -233.48208191 1845.33158619 -238.875 1848.4375 C-239.95410645 1849.05939209 -241.03321289 1849.68128418 -242.14501953 1850.32202148 C-244.33582951 1851.58449731 -246.5267476 1852.84678556 -248.71777344 1854.10888672 C-255.2235961 1857.8573323 -261.72644083 1861.61094181 -268.22973633 1865.36376953 C-273.75737281 1868.55328795 -279.28599381 1871.74107821 -284.81640625 1874.92578125 C-286.49500732 1875.89439087 -286.49500732 1875.89439087 -288.20751953 1876.88256836 C-290.42736472 1878.1595205 -292.65095989 1879.4299778 -294.87841797 1880.69360352 C-299.56654006 1883.36484231 -304.1639597 1886.04000153 -308.56640625 1889.1640625 C-319.17733527 1896.55610062 -329.2649741 1898.23780286 -342.140625 1896.59082031 C-349.22832604 1895.12631924 -355.01803428 1891.41114781 -360.92919922 1887.38916016 C-364.19178261 1885.20051367 -367.59844086 1883.27478057 -371 1881.3125 C-372.40837846 1880.48056405 -373.81589503 1879.64716771 -375.22265625 1878.8125 C-384.29694005 1873.45298293 -393.45025392 1868.22771368 -402.58300781 1862.96875 C-405.96020003 1861.02293134 -409.33585596 1859.07447709 -412.7109375 1857.125 C-422.66959183 1851.3733286 -432.63304117 1845.63114619 -442.625 1839.9375 C-451.01932313 1835.15243103 -459.37039647 1830.29586808 -467.71191406 1825.41943359 C-478.35565245 1819.2001045 -489.03571631 1813.04432083 -499.71777344 1806.89111328 C-505.14659942 1803.76319852 -510.57319281 1800.63141552 -516 1797.5 C-518.16665583 1796.24998121 -520.3333225 1794.99998122 -522.5 1793.75 C-526.83333333 1791.25 -531.16666667 1788.75 -535.5 1786.25 C-536.57266113 1785.63116943 -537.64532227 1785.01233887 -538.75048828 1784.37475586 C-540.91557071 1783.12564482 -543.08060982 1781.87645871 -545.24560547 1780.62719727 C-550.68615706 1777.48797691 -556.12747216 1774.35009437 -561.5703125 1771.21484375 C-572.99955738 1764.6292921 -584.4230358 1758.03507581 -595.79223633 1751.34619141 C-600.64773394 1748.49877487 -605.52122271 1745.69572234 -610.45562744 1742.98768616 C-612.96779976 1741.60833502 -615.4727021 1740.21601226 -617.97784424 1738.82394409 C-619.74394701 1737.8502932 -621.52096599 1736.89652387 -623.29833984 1735.94360352 C-631.04061825 1731.63637508 -639.2317385 1726.7138994 -644 1719 C-645.51303606 1713.62837208 -645.45797295 1708.49098901 -645.34057617 1702.97192383 C-645.34734891 1701.38408757 -645.3589599 1699.79626578 -645.375 1698.20849609 C-645.40469584 1693.92926747 -645.3673291 1689.65302154 -645.31726241 1685.3740828 C-645.27642743 1680.89106136 -645.29816498 1676.40833689 -645.31306458 1671.92521667 C-645.33182689 1663.45006899 -645.29489243 1654.97613035 -645.23759204 1646.50119275 C-645.17505609 1636.84690034 -645.17514884 1627.19291977 -645.18031728 1617.53846323 C-645.18954852 1597.69187401 -645.12073157 1577.84619647 -645 1558 C-645.77004238 1557.57319081 -645.77004238 1557.57319081 -646.55564117 1557.13775921 C-648.91043089 1555.83218904 -651.26478846 1554.52584145 -653.61914062 1553.21948242 C-654.42659729 1552.77195366 -655.23405396 1552.3244249 -656.065979 1551.86333466 C-662.25851218 1548.42621905 -668.39664839 1544.90571755 -674.5 1541.3125 C-676.55437201 1540.10883637 -678.60907123 1538.90573107 -680.6640625 1537.703125 C-681.7046582 1537.09404297 -682.74525391 1536.48496094 -683.81738281 1535.85742188 C-689.1589109 1532.74002807 -694.51648374 1529.65057458 -699.875 1526.5625 C-700.95458984 1525.94028564 -702.03417969 1525.31807129 -703.14648438 1524.67700195 C-705.3368252 1523.41488483 -707.52725502 1522.15292215 -709.71777344 1520.89111328 C-715.14659942 1517.76319852 -720.57319281 1514.63141552 -726 1511.5 C-728.16665583 1510.24998121 -730.3333225 1508.99998122 -732.5 1507.75 C-745.5 1500.25 -758.5 1492.75 -771.5 1485.25 C-772.57282227 1484.63108887 -773.64564453 1484.01217773 -774.75097656 1483.37451172 C-776.91447476 1482.12628966 -779.07788643 1480.87791761 -781.24121094 1479.62939453 C-786.70565017 1476.47594744 -792.17163645 1473.32523904 -797.640625 1470.1796875 C-798.74792969 1469.54224609 -799.85523438 1468.90480469 -800.99609375 1468.24804688 C-803.04498654 1467.0686422 -805.09439311 1465.89012919 -807.14453125 1464.71289062 C-809.13007533 1463.56941817 -811.08670173 1462.37447057 -813.0135498 1461.13464355 C-816.07797247 1459.31303291 -818.99791172 1458.41247107 -822.43737793 1457.50439453 C-829.4868328 1455.20779951 -834.89644165 1452.3529879 -839 1446 C-843.55861076 1431.8679756 -841.13783557 1414.7228664 -840.57637501 1400.14566469 C-840.36921995 1393.97874361 -840.30885129 1387.81070594 -840.23919678 1381.64096069 C-840.00490681 1363.30533016 -839.53255227 1344.97663472 -839.0335083 1326.64654541 C-838.6486667 1312.39029129 -838.3258526 1298.13789787 -838.17941356 1283.87696207 C-838.11061155 1277.74188843 -837.9879282 1271.6178796 -837.73825836 1265.48729324 C-835.30911059 1241.45171007 -835.30911059 1241.45171007 -842.44169617 1219.56224823 C-848.04748159 1214.07151197 -855.15495591 1211.47910493 -862.54711151 1209.20823288 C-868.48405774 1207.13077985 -873.65860075 1203.77205308 -879 1200.5 C-881.16341234 1199.24437606 -883.32971428 1197.99370588 -885.5 1196.75 C-892 1193 -892 1193 -898.5 1189.25 C-899.5729834 1188.6310083 -900.6459668 1188.0120166 -901.75146484 1187.37426758 C-903.91337884 1186.12693452 -906.07516317 1184.8793767 -908.23681641 1183.6315918 C-913.72514585 1180.46391168 -919.21582533 1177.30043239 -924.7109375 1174.14453125 C-930.13630106 1171.02787512 -935.55242834 1167.8956461 -940.96386719 1164.75488281 C-943.87745597 1163.07083037 -946.80126595 1161.40579093 -949.7265625 1159.7421875 C-951.48489835 1158.72486235 -953.24274072 1157.70668361 -955 1156.6875 C-955.77005371 1156.25671143 -956.54010742 1155.82592285 -957.33349609 1155.38208008 C-964.40053441 1151.23551663 -972.58686786 1145.95738457 -974.92626405 1137.75058901 C-975.28106031 1133.92482787 -975.32603962 1130.16441638 -975.25637817 1126.329422 C-975.26648281 1124.85731627 -975.28095113 1123.38523521 -975.29937446 1121.91321009 C-975.33708585 1117.88952151 -975.31283649 1113.86827785 -975.27792859 1109.84465277 C-975.25111171 1105.49755952 -975.2820787 1101.15081602 -975.30557251 1096.80375671 C-975.34228133 1088.29736294 -975.3253333 1079.7918895 -975.28939606 1071.28552464 C-975.26132028 1064.37261805 -975.25356344 1057.45996093 -975.26028061 1050.54700279 C-975.26123549 1049.56235015 -975.26219038 1048.57769751 -975.2631742 1047.56320691 C-975.26522689 1045.56281031 -975.26733761 1043.56241376 -975.26950572 1041.56201728 C-975.28663018 1023.88466674 -975.25331846 1006.20776011 -975.19384766 988.53051758 C-975.13614844 971.37961188 -975.12201913 954.22934531 -975.15283203 937.07836914 C-975.18635262 918.39469702 -975.19443059 899.71132816 -975.15941131 881.02764815 C-975.15572257 879.03561544 -975.15205312 877.04358269 -975.14840317 875.05154991 C-975.14657899 874.07146152 -975.14475481 873.09137312 -975.14287535 872.08158508 C-975.13166431 865.17574013 -975.13827885 858.27004325 -975.15149307 851.36420631 C-975.16695432 842.95019621 -975.15347477 834.53681526 -975.10314299 826.12293199 C-975.07814122 821.83014132 -975.06587124 817.53833037 -975.08822632 813.24550247 C-975.10830764 809.31512322 -975.09141036 805.38669764 -975.04506396 801.45655628 C-975.03474409 800.03550782 -975.03787289 798.61428432 -975.05585326 797.19331215 C-975.17913593 786.56587992 -975.17913593 786.56587992 -972.22708678 782.64559019 C-970.23326497 780.88924106 -968.22622637 779.4418958 -966 778 C-965.28150879 777.26048096 -964.56301758 776.52096191 -963.82275391 775.7590332 C-961.6645515 773.67627827 -959.44403576 772.33453929 -956.8359375 770.85546875 C-955.29655518 769.97556274 -955.29655518 769.97556274 -953.72607422 769.07788086 C-952.06729248 768.14214233 -952.06729248 768.14214233 -950.375 767.1875 C-949.20940622 766.52355547 -948.04421112 765.85891059 -946.87939453 765.19360352 C-944.4589128 763.81186074 -942.03674658 762.4331433 -939.61328125 761.05664062 C-934.0189201 757.87622311 -928.44765899 754.65574009 -922.875 751.4375 C-921.79766602 750.81633301 -920.72033203 750.19516602 -919.61035156 749.55517578 C-912.43422951 745.41527118 -905.27594357 741.24570995 -898.125 737.0625 C-888.11883627 731.20952361 -878.06184118 725.44919843 -867.98730469 719.71508789 C-860.54035582 715.47302443 -853.12753634 711.1790207 -845.79516602 706.74121094 C-841.21389026 704 -841.21389026 704 -839 704 C-839.03318455 702.2877036 -839.03318455 702.2877036 -839.06703949 700.54081535 C-839.60045637 672.73081858 -839.99450041 644.9214868 -840.24349213 617.10745049 C-840.26796737 614.426935 -840.2929591 611.74642484 -840.31835938 609.06591797 C-840.32465483 608.39969261 -840.33095028 607.73346724 -840.3374365 607.04705323 C-840.44166299 596.28163356 -840.63075861 585.51931315 -840.85166711 574.75572775 C-841.07671648 563.69751554 -841.20773716 552.64100468 -841.25812387 541.58062088 C-841.28935177 535.37202934 -841.36237025 529.17044509 -841.53752136 522.96410751 C-842.59572046 484.00048557 -842.59572046 484.00048557 -836.64449692 476.58151817 C-831.07593662 471.47932351 -824.99789803 468.85068279 -817.78815842 466.83442879 C-814.03243585 465.71043131 -811.17106841 463.99063379 -807.8828125 461.87890625 C-805.96389348 460.77282692 -804.04463128 459.66734273 -802.125 458.5625 C-799.94009462 457.30340198 -797.75519908 456.04428689 -795.5703125 454.78515625 C-794.48524414 454.16012207 -793.40017578 453.53508789 -792.28222656 452.89111328 C-786.85340058 449.76319852 -781.42680719 446.63141552 -776 443.5 C-773.83334417 442.24998121 -771.6666775 440.99998122 -769.5 439.75 C-768.4275 439.13125 -767.355 438.5125 -766.25 437.875 C-730.5 417.25 -730.5 417.25 -727.24951172 415.37475586 C-725.08442929 414.12564482 -722.91939018 412.87645871 -720.75439453 411.62719727 C-715.31384294 408.48797691 -709.87252784 405.35009437 -704.4296875 402.21484375 C-693.75188528 396.06254325 -683.08252162 389.89638297 -672.4375 383.6875 C-671.53563965 383.16148193 -670.6337793 382.63546387 -669.70458984 382.09350586 C-667.90852396 381.04458655 -666.13199144 379.96143354 -664.37760925 378.8441925 C-661.66284225 377.36191537 -659.6497487 376.55456991 -656.74815369 375.72076416 C-651.4365528 373.90404885 -647.22171643 371.73032322 -644 367 C-640.96734639 356.50475172 -642.09278423 344.84191769 -642.43662119 334.03965306 C-642.55635826 329.61708749 -642.57003672 325.19431303 -642.59249878 320.77037048 C-642.6554116 311.43984463 -642.82066472 302.11330181 -643.01031494 292.78460693 C-643.29565053 278.74857433 -643.51154034 264.71214374 -643.6126107 250.67354292 C-643.65446014 245.41895584 -643.75395205 240.16965916 -643.90024114 234.91698277 C-643.98102765 231.63990468 -644.01598945 228.3634214 -644.03959846 225.08548164 C-644.06001304 223.57550826 -644.09934617 222.06564263 -644.15984535 220.55674362 C-644.43588657 213.45538232 -644.27684087 207.6141261 -639.27508819 202.18705696 C-633.51749839 196.59572301 -626.96284524 192.54152478 -619.9375 188.75 C-618.22082627 187.79169619 -616.50416864 186.83336213 -614.78848267 185.87329102 C-613.02589401 184.88981609 -611.25917388 183.91411471 -609.49169922 182.93945312 C-603.95367264 179.86337403 -598.47954506 176.67869337 -593 173.5 C-590.8336616 172.24943118 -588.66699414 170.9994322 -586.5 169.75 C-585.4275 169.13125 -584.355 168.5125 -583.25 167.875 C-391.5 57.25 -391.5 57.25 -388.24389648 55.37158203 C-386.09745541 54.13318229 -383.95113196 52.89457865 -381.80493164 51.65576172 C-376.69997994 48.70944644 -371.59379033 45.76533542 -366.48348999 42.82830811 C-364.05339448 41.43150193 -361.62396065 40.03354722 -359.19458008 38.63549805 C-357.46695585 37.64194008 -355.7383688 36.65005691 -354.00976562 35.65820312 C-352.97400391 35.06201172 -351.93824219 34.46582031 -350.87109375 33.8515625 C-349.49328735 33.05999756 -349.49328735 33.05999756 -348.08764648 32.25244141 C-346.08479141 31.1656533 -346.08479141 31.1656533 -345 30 C-326.19620337 26.52808474 -313.66696183 32.77378882 -298.28222656 42.88330078 C-292.97798721 46.30399069 -287.48756972 49.38553381 -282 52.5 C-279.83235793 53.74830777 -277.66569111 54.99831057 -275.5 56.25 C-273.89125 57.178125 -273.89125 57.178125 -272.25 58.125 C-262.49999999 63.75 -262.49999999 63.75 -259.2487793 65.62573242 C-257.08621417 66.8733474 -254.92361661 68.12090616 -252.76098633 69.3684082 C-247.28129629 72.52943449 -241.80220642 75.69149309 -236.32421875 78.85546875 C-225.97345913 84.83300968 -215.61974337 90.80543848 -205.25 96.75 C-204.39881592 97.23944092 -203.54763184 97.72888184 -202.6706543 98.2331543 C-201.12313374 99.11868606 -199.56816419 99.99138954 -198.00439453 100.84790039 C-196 102 -196 102 -193.0703125 104.16796875 C-189.34454635 105.17762294 -188.58943686 104.64929735 -185.2265625 102.94140625 C-183.34498467 101.8393126 -181.47862734 100.71098215 -179.625 99.5625 C-178.10749146 98.66301636 -178.10749146 98.66301636 -176.55932617 97.74536133 C-174.42524294 96.47887191 -172.29699341 95.20250727 -170.17431641 93.91699219 C-166.21939484 91.52858701 -162.22908949 89.20469601 -158.23388672 86.88452148 C-155.2521746 85.15245722 -152.27643023 83.41042494 -149.30078125 81.66796875 C-142.56011367 77.73245673 -135.78193337 73.86371923 -129 70 C-120.3058984 65.04636501 -111.63497112 60.05630662 -103 55 C-94.36502443 49.94369077 -85.69393681 44.95392878 -77 40 C-67.29272986 34.46810458 -57.6185539 28.88292467 -47.97485352 23.24072266 C-40.31115156 18.7586279 -32.62877938 14.30953178 -24.9375 9.875 C-23.30433838 8.93321899 -23.30433838 8.93321899 -21.63818359 7.97241211 C-19.62986014 6.81504913 -17.61896513 5.66213176 -15.60498047 4.51464844 C-14.02113976 3.59373487 -12.45234089 2.64532308 -10.91455078 1.64941406 C-6.76620882 -1.00271159 -4.72616641 -1.16288907 0 0 Z " fill="#000000" transform="translate(1004,1)"/>
<path d="M0 0 C0.83402344 0.44811035 1.66804688 0.8962207 2.52734375 1.35791016 C3.42670654 1.83897217 4.32606934 2.32003418 5.25268555 2.81567383 C6.23406494 3.3800415 7.21544434 3.94440918 8.2265625 4.52587891 C9.8964624 5.48312866 9.8964624 5.48312866 11.60009766 6.4597168 C12.80506057 7.15486549 14.00997465 7.85009886 15.21484375 8.54541016 C16.47169174 9.26759633 17.72869287 9.98951606 18.98583984 10.71118164 C22.21371523 12.56534083 25.43923724 14.42354969 28.66387939 16.2833252 C31.52259579 17.93183199 34.38252829 19.57822703 37.2421875 21.22509766 C42.60012484 24.31270192 47.95526876 27.40511949 53.30957031 30.49902344 C58.7140502 33.62115621 64.12081787 36.7393222 69.52734375 39.85791016 C71.69402125 41.10789137 73.86068792 42.35789137 76.02734375 43.60791016 C77.63609375 44.53603516 77.63609375 44.53603516 79.27734375 45.48291016 C123.15234375 70.79541016 123.15234375 70.79541016 167.02734375 96.10791016 C168.10000488 96.72674072 169.17266602 97.34557129 170.27783203 97.9831543 C172.44291446 99.23226534 174.60795357 100.48145145 176.77294922 101.73071289 C182.21350081 104.86993325 187.65481591 108.00781578 193.09765625 111.14306641 C204.5337118 117.73254238 215.95127068 124.35158852 227.34375 131.01611328 C235.0842267 135.53561835 242.86372381 139.98469887 250.65234375 144.42041016 C259.54248247 149.48466309 268.40395548 154.59414385 277.21484375 159.79541016 C278.1476416 160.34527588 279.08043945 160.8951416 280.04150391 161.46166992 C286.39939234 165.22995875 286.39939234 165.22995875 287.52734375 166.35791016 C287.63287756 168.12962057 287.66763326 169.90556672 287.67553139 171.68039989 C287.68684339 173.42301736 287.68684339 173.42301736 287.69838393 175.20083922 C287.70161016 176.49341039 287.7048364 177.78598156 287.7081604 179.11772156 C287.7150336 180.49199386 287.72232187 181.86626414 287.72999227 183.24053222 C287.74979513 187.03480454 287.76313583 190.82907667 287.7753408 194.62338006 C287.78658833 197.87347284 287.80152623 201.12354449 287.8164639 204.37362208 C287.95754521 235.17341692 288.02287666 265.97368833 288.07578468 296.77374554 C288.08279399 300.7838156 288.08992091 304.79388544 288.09716797 308.80395508 C288.09986091 310.29904403 288.09986091 310.29904403 288.10260825 311.8243368 C288.13268039 327.973768 288.1974493 344.12287408 288.27585442 360.27213516 C288.35563059 376.84043094 288.40145811 393.4085582 288.41481054 409.9770425 C288.42322751 419.28450315 288.44706022 428.59138766 288.50947952 437.89865685 C288.56260749 445.82497438 288.58546347 453.75063486 288.56836934 461.67712536 C288.56060644 465.72287898 288.56754065 469.76721918 288.61365128 473.81274796 C288.65553496 477.51649541 288.65591969 481.21784034 288.62322108 484.92165885 C288.61658698 486.89665599 288.65439153 488.87164774 288.69373763 490.84626406 C288.56113705 499.2502275 288.56113705 499.2502275 285.59058261 502.43309939 C283.29283978 503.99455726 281.04877388 505.20033925 278.52734375 506.35791016 C277.19775122 507.10889118 275.87251172 507.86771468 274.5546875 508.63916016 C273.1930564 509.38177717 271.82969484 510.12122788 270.46484375 510.85791016 C263.29258546 514.78698135 256.20638279 518.84556215 249.15234375 522.98291016 C240.30998813 528.16613928 231.43312684 533.28478898 222.52734375 538.35791016 C212.80590669 543.89742854 203.11839058 549.4916621 193.46044922 555.14135742 C182.9364975 561.29557757 172.37354238 567.38161012 161.80957031 573.46679688 C156.38074433 576.59471164 150.95415094 579.72649463 145.52734375 582.85791016 C143.36068792 584.10792895 141.19402125 585.35792894 139.02734375 586.60791016 C137.41859375 587.53603516 137.41859375 587.53603516 135.77734375 588.48291016 C106.52734375 605.35791016 77.27734375 622.23291016 48.02734375 639.10791016 C46.95315186 639.72770752 45.87895996 640.34750488 44.7722168 640.98608398 C42.6228896 642.22593739 40.47331594 643.46536366 38.32348633 644.7043457 C33.24899886 647.62954778 28.17712758 650.55902738 23.11398315 653.5038147 C20.72418707 654.89339646 18.33297539 656.28053188 15.94165039 657.66748047 C14.25593786 658.64654269 12.57227788 659.62913621 10.88867188 660.61181641 C9.86580078 661.20478516 8.84292969 661.79775391 7.7890625 662.40869141 C6.89147217 662.93116455 5.99388184 663.4536377 5.0690918 663.99194336 C0.12109273 666.65105918 0.12109273 666.65105918 -2.47265625 667.35791016 C-4.85009766 666.56616211 -4.85009766 666.56616211 -7.32421875 665.09619141 C-8.24775146 664.56002197 -9.17128418 664.02385254 -10.12280273 663.47143555 C-11.10450439 662.87709717 -12.08620605 662.28275879 -13.09765625 661.67041016 C-14.12383057 661.06898193 -15.15000488 660.46755371 -16.20727539 659.84790039 C-18.30965115 658.61441759 -20.40773571 657.37359162 -22.50146484 656.12548828 C-25.86714801 654.12322484 -29.2572556 652.16694414 -32.65356445 650.21728516 C-38.45474338 646.88331756 -44.2284778 643.50184172 -50.00390625 640.12353516 C-60.79569693 633.81288987 -71.61117627 627.54772382 -82.47265625 621.35791016 C-92.19381934 615.81790498 -101.88160295 610.224162 -111.53955078 604.57446289 C-122.06633076 598.41858882 -132.63230559 592.33127129 -143.19921875 586.24462891 C-146.43740785 584.37822636 -149.67405063 582.50917253 -152.91015625 580.63916016 C-163.53143487 574.50281562 -174.16338588 568.38628053 -184.81896973 562.30975342 C-195.09112862 556.45178181 -205.33294738 550.54501168 -215.54003906 544.57421875 C-222.79506116 540.33150874 -230.06638261 536.11790146 -237.34765625 531.92041016 C-238.42007568 531.30206299 -239.49249512 530.68371582 -240.59741211 530.04663086 C-246.18558532 526.8257251 -251.77577525 523.60834554 -257.3671875 520.39306641 C-258.50494629 519.73814209 -259.64270508 519.08321777 -260.81494141 518.40844727 C-262.95325944 517.17761131 -265.09219661 515.94784995 -267.23193359 514.71948242 C-269.1918667 513.59098296 -271.13449628 512.431724 -273.05575562 511.23857212 C-275.65035612 509.81050411 -277.54398295 508.97233163 -280.29376221 508.14263058 C-284.95545491 506.49338594 -288.62405699 504.50617261 -291.47265625 500.35791016 C-294.33058756 491.12865316 -293.5714828 480.80507307 -293.46284437 471.22255147 C-293.43294646 467.15046717 -293.48950803 463.07943058 -293.53469849 459.00761414 C-293.60902945 451.03785346 -293.60215836 443.0701544 -293.56555891 435.10020835 C-293.53712354 428.62148758 -293.53729638 422.14335613 -293.55776978 415.66460991 C-293.56064572 414.74174589 -293.56352166 413.81888188 -293.56648475 412.86805229 C-293.57242537 410.99312523 -293.57841999 409.11819835 -293.58446801 407.24327164 C-293.63756099 389.66994952 -293.59722666 372.09777857 -293.52589428 354.52458309 C-293.4670595 339.45502693 -293.49273412 324.38751235 -293.57910156 309.31811523 C-293.67943922 291.8083411 -293.72394095 274.29982274 -293.68221569 256.78976911 C-293.67794086 254.92152166 -293.67375104 253.05327401 -293.66964722 251.18502617 C-293.66761451 250.26587535 -293.6655818 249.34672453 -293.66348749 248.39972066 C-293.65312624 241.93130818 -293.68288633 235.46379776 -293.72854614 228.9955616 C-293.78328646 221.10823894 -293.77758842 213.22371957 -293.69487762 205.33659489 C-293.65424259 201.31348545 -293.64052615 197.29519733 -293.7010231 193.27222824 C-294.02794384 169.76423318 -294.02794384 169.76423318 -289.78764534 164.1117084 C-285.81085651 160.61150341 -281.47006888 158.64390922 -276.46313763 157.03395641 C-273.7980029 156.12877118 -271.51283581 154.77047702 -269.1328125 153.28369141 C-267.60079946 152.41164999 -266.06824682 151.54055584 -264.53515625 150.67041016 C-247.01694392 140.68954202 -229.56660087 130.59263932 -212.16088867 120.41699219 C-204.92957549 116.19459768 -197.66680521 112.03020308 -190.38964844 107.88745117 C-183.87085635 104.17090739 -177.38620997 100.3983563 -170.91015625 96.60791016 C-162.12880098 91.46927574 -153.31251423 86.39493048 -144.47265625 81.35791016 C-134.75140418 75.81806312 -125.06370744 70.22416077 -115.40576172 64.57446289 C-104.88181 58.42024274 -94.31885488 52.3342102 -83.75488281 46.24902344 C-78.32605683 43.12110867 -72.89946344 39.98932568 -67.47265625 36.85791016 C-65.30600042 35.60789137 -63.13933375 34.35789137 -60.97265625 33.10791016 C-59.90015625 32.48916016 -58.82765625 31.87041016 -57.72265625 31.23291016 C-54.47265625 29.35791016 -51.22265625 27.48291016 -47.97265625 25.60791016 C-46.89846436 24.98779053 -45.82427246 24.3676709 -44.7175293 23.72875977 C-42.56932939 22.49020316 -40.41976927 21.25400249 -38.26879883 20.02026367 C-33.17205341 17.09307095 -28.09290411 14.14319595 -23.05929565 11.1088562 C-20.673975 9.67289309 -18.28083832 8.25025707 -15.88696289 6.82861328 C-14.19483038 5.81615679 -12.51424764 4.78447627 -10.83398438 3.75244141 C-9.81111328 3.14658203 -8.78824219 2.54072266 -7.734375 1.91650391 C-6.3879895 1.10137329 -6.3879895 1.10137329 -5.0144043 0.26977539 C-2.47265625 -0.64208984 -2.47265625 -0.64208984 0 0 Z " fill="#FEFEFE" transform="translate(672.47265625,1208.64208984375)"/>
<path d="M0 0 C2.51076615 1.16301064 4.91048806 2.40534023 7.31689453 3.77026367 C8.21432373 4.2779126 9.11175293 4.78556152 10.03637695 5.30859375 C10.99906494 5.85797607 11.96175293 6.4073584 12.95361328 6.97338867 C13.96979736 7.55048584 14.98598145 8.12758301 16.03295898 8.72216797 C24.15958166 13.34945531 32.23929227 18.05534014 40.30883789 22.78125 C48.01660523 27.29050131 55.75868838 31.73781543 63.51611328 36.16088867 C81.93100471 46.66311414 100.29206327 57.25614524 118.59643555 67.94995117 C133.772237 76.81071336 148.99854998 85.58425169 164.26611328 94.28588867 C172.66038863 99.07104277 181.01150863 103.92751994 189.35302734 108.80395508 C199.99676573 115.02328417 210.67682959 121.17906785 221.35888672 127.33227539 C226.78771268 130.46019014 232.21431997 133.59194913 237.64111328 136.72338867 C243.71827492 140.2298335 249.79551801 143.73613568 255.8739624 147.24035645 C257.62452569 148.24957971 259.37501739 149.25892704 261.12548828 150.26831055 C263.30503493 151.52506527 265.48471161 152.78159453 267.66455078 154.0378418 C269.60567212 155.15723845 271.54010666 156.28836191 273.46566492 157.43432277 C276.58592538 159.25968065 276.58592538 159.25968065 279.79290241 160.61685187 C287.95441094 164.48226742 287.95441094 164.48226742 289.75420868 169.04562175 C290.19885516 172.64130248 290.24584159 176.0685197 290.17164612 179.69126892 C290.18619971 181.06935493 290.20597798 182.44739395 290.23051113 183.82533842 C290.28248493 187.6033865 290.259761 191.37782964 290.22446835 195.15593421 C290.19935809 199.23330031 290.24332095 203.31001004 290.27830505 207.38722229 C290.33551406 215.37107806 290.32771153 223.35360363 290.29637838 231.33755343 C290.27200701 237.82675698 290.27069991 244.31558282 290.28584099 250.80481148 C290.28796851 251.72852392 290.29009603 252.65223636 290.29228802 253.60394009 C290.29669705 255.48048161 290.30115331 257.35702302 290.30565631 259.23356432 C290.345046 276.8295612 290.31010155 294.42481704 290.2502678 312.02071715 C290.20074819 327.11564401 290.217071 342.20934221 290.28100586 357.30419922 C290.35524203 374.83578774 290.38699321 392.36662964 290.35230774 409.89836603 C290.34873682 411.76829394 290.34522725 413.63822196 290.34177971 415.5081501 C290.34006911 416.42817232 290.33835852 417.34819454 290.33659609 418.29609622 C290.32752779 424.77628864 290.34897884 431.25596774 290.38238716 437.73606682 C290.42236073 445.63553591 290.41613887 453.53335349 290.35078955 461.4326803 C290.31863007 465.46293219 290.3071939 469.49037333 290.35228348 473.52056503 C290.39300742 477.21299049 290.37340339 480.90006916 290.30624627 484.59206326 C290.28592975 486.55525545 290.3292973 488.51878994 290.37511545 490.48155254 C290.27109642 494.15386161 290.04444691 496.82296354 288.64111328 500.22338867 C284.6570312 503.78620325 280.4660819 505.91076336 275.64111328 508.22338867 C273.4721443 509.45935205 271.31066602 510.70865805 269.16064453 511.97729492 C266.92611626 513.24884713 264.69039943 514.5183125 262.45361328 515.78588867 C259.98293731 517.19104345 257.51323222 518.5979014 255.04345703 520.00463867 C254.42335754 520.35756485 253.80325806 520.71049103 253.16436768 521.07411194 C246.93473243 524.62122923 240.72361108 528.20018531 234.51611328 531.78588867 C233.45239502 532.40020752 232.38867676 533.01452637 231.29272461 533.64746094 C229.14801741 534.8863109 227.00340448 536.12532409 224.85888672 537.36450195 C219.45440679 540.48663474 214.04761221 543.60475393 208.64111328 546.72338867 C207.56990234 547.34149414 206.49869141 547.95959961 205.39501953 548.59643555 C199.95465253 551.73561241 194.51348374 554.87338496 189.07080078 558.00854492 C178.61905049 564.03086242 168.17818213 570.07019125 157.76611328 576.16088867 C149.12829327 581.21176886 140.45791688 586.20363221 131.76611328 591.16088867 C114.38309634 601.07540098 97.04043613 611.05795772 79.76611328 621.16088867 C71.08843313 626.23605163 62.37490509 631.24570208 53.64111328 636.22338867 C44.6811999 641.33094391 35.73886189 646.46696422 26.82861328 651.66088867 C25.84465576 652.23266846 24.86069824 652.80444824 23.84692383 653.39355469 C19.52375036 655.91463968 15.22645009 658.46072043 10.99267578 661.12963867 C10.30020752 661.56219971 9.60773926 661.99476074 8.89428711 662.44042969 C7.65139752 663.22206323 6.4159909 664.01580432 5.19067383 664.82470703 C2.72738072 666.37171881 1.20029102 667.28232779 -1.74462891 666.97192383 C-4.52760584 666.17507967 -6.63104703 665.11108594 -9.11279297 663.62573242 C-10.4962793 662.80685547 -10.4962793 662.80685547 -11.90771484 661.97143555 C-12.90222656 661.37395508 -13.89673828 660.77647461 -14.92138672 660.16088867 C-17.08859876 658.87705834 -19.25659975 657.5945591 -21.42529297 656.31323242 C-23.12709717 655.30558838 -23.12709717 655.30558838 -24.86328125 654.27758789 C-30.0739668 651.20532965 -35.33347727 648.21861033 -40.59158325 645.22851562 C-50.90671566 639.36194104 -61.18283719 633.43185117 -71.42578125 627.43994141 C-81.94973297 621.28572126 -92.51268809 615.19968871 -103.07666016 609.11450195 C-108.50548614 605.98658719 -113.93207953 602.85480419 -119.35888672 599.72338867 C-121.52554255 598.47336988 -123.69220922 597.22336989 -125.85888672 595.97338867 C-190.85888671 558.47338867 -190.85888671 558.47338867 -194.11010742 556.59765625 C-196.27267255 555.35004127 -198.43527011 554.10248251 -200.59790039 552.85498047 C-206.07759043 549.69395418 -211.55668029 546.53189558 -217.03466797 543.36791992 C-227.8419283 537.12723042 -238.65853291 530.90439483 -249.50170898 524.72631836 C-257.40150137 520.21649559 -265.25680021 515.63123828 -273.10351562 511.02978516 C-274.04888184 510.47621338 -274.99424805 509.9226416 -275.96826172 509.35229492 C-276.79293945 508.86833252 -277.61761719 508.38437012 -278.46728516 507.88574219 C-280.97999425 506.44121025 -283.5052192 505.02543717 -286.03961182 503.61949158 C-286.84883213 503.17042922 -287.65805244 502.72136686 -288.49179459 502.25869656 C-289.10793499 501.91704495 -289.72407539 501.57539335 -290.35888672 501.22338867 C-290.7022302 458.69988168 -290.96653564 416.17653462 -291.12486666 373.65191609 C-291.14362723 368.6313858 -291.16304207 363.61085825 -291.18286133 358.59033203 C-291.18679598 357.59083688 -291.19073064 356.59134172 -291.19478453 355.56155884 C-291.26005265 339.37826542 -291.3783186 323.19577137 -291.51617866 307.01295216 C-291.65645974 290.40742636 -291.7397695 273.80231913 -291.77021414 257.19622511 C-291.79079588 246.94905321 -291.85578687 236.70414053 -291.97763372 226.45766418 C-292.05693614 219.43086564 -292.08088732 212.40523454 -292.06140738 205.37802101 C-292.05179817 201.32279848 -292.06649322 197.2715211 -292.14696884 193.21700096 C-292.59441432 169.52034856 -292.59441432 169.52034856 -288.90553784 164.07998729 C-285.46875289 160.84387733 -281.71996453 159.18518797 -277.24075139 157.84818637 C-274.28048303 156.86534797 -271.75787394 155.22991869 -269.12060547 153.59057617 C-267.09663365 152.42517926 -265.07187621 151.26114583 -263.04638672 150.09838867 C-260.77943896 148.7937371 -258.51251248 147.48904854 -256.24560547 146.18432617 C-255.10397949 145.52787109 -253.96235352 144.87141602 -252.78613281 144.19506836 C-247.30732875 141.04313635 -241.83327559 137.88298071 -236.35888672 134.72338867 C-234.19224446 133.47334637 -232.02557775 132.22334644 -229.85888672 130.97338867 C-228.78638672 130.35463867 -227.71388672 129.73588867 -226.60888672 129.09838867 C-60.85888672 33.47338867 -60.85888672 33.47338867 -57.60571289 31.59667969 C-55.44948459 30.35262076 -53.29339623 29.10831925 -51.13745117 27.86376953 C-46.14439704 24.98183957 -41.15017815 22.10202037 -36.15055847 19.23149109 C-34.41452993 18.23457326 -32.67906456 17.23667495 -30.94360352 16.23876953 C-28.71051059 14.95508212 -26.47632883 13.67328666 -24.2409668 12.39355469 C-19.77336575 9.82512371 -15.33002742 7.25352639 -11.01513672 4.43432617 C-10.1079187 3.84445923 -10.1079187 3.84445923 -9.18237305 3.24267578 C-7.70166676 2.26356676 -6.23814566 1.25858983 -4.77685547 0.25073242 C-2.35888672 -0.77661133 -2.35888672 -0.77661133 0 0 Z " fill="#FEFEFE" transform="translate(672.35888671875,52.776611328125)"/>
<path d="M0 0 C0.95535645 0.53359131 1.91071289 1.06718262 2.89501953 1.61694336 C4.47814941 2.48343506 4.47814941 2.48343506 6.09326172 3.36743164 C7.14416992 3.97441895 8.19507813 4.58140625 9.27783203 5.20678711 C10.20241211 5.72740723 11.12699219 6.24802734 12.07958984 6.78442383 C14.87115867 8.3766557 17.6384532 10.00534132 20.40283203 11.64428711 C22.51185489 12.88446947 24.62124264 14.12403149 26.73095703 15.36303711 C28.3484082 16.31436523 28.3484082 16.31436523 29.99853516 17.28491211 C35.36777936 20.43162819 40.75991394 23.5383733 46.15283203 26.64428711 C47.7714917 27.57712524 47.7714917 27.57712524 49.42285156 28.52880859 C51.61366154 29.79128442 53.80457963 31.05357266 55.99560547 32.31567383 C61.42443145 35.44358859 66.85102484 38.57537159 72.27783203 41.70678711 C74.44448786 42.9568059 76.61115453 44.20680589 78.77783203 45.45678711 C117.77783203 67.95678711 156.77783203 90.45678711 195.77783203 112.95678711 C196.85049316 113.57561768 197.9231543 114.19444824 199.02832031 114.83203125 C201.19340274 116.08114229 203.35844185 117.3303284 205.5234375 118.57958984 C210.96398909 121.7188102 216.40530419 124.85669274 221.84814453 127.99194336 C232.42070856 134.08351439 242.98600054 140.18715272 253.52783203 146.33178711 C254.81778076 147.08310913 254.81778076 147.08310913 256.13378906 147.84960938 C257.94056226 148.90425145 259.72890477 149.99098361 261.49935818 151.1055212 C264.44033256 152.85690635 267.43793203 154.0694654 270.63074589 155.29565525 C277.85360897 158.35612717 285.38479409 161.65687046 288.55329585 169.27236438 C290.47227536 178.01864682 290.18429522 186.96398774 289.96320713 195.86504447 C289.88620718 199.9423101 289.9372134 204.01833279 289.97175598 208.09590149 C290.01933616 216.06778683 289.95032827 224.03454091 289.84135263 232.00565671 C289.71891905 241.29136913 289.71394671 250.57605224 289.71375317 259.86243642 C289.70951038 276.42875393 289.60067267 292.99271753 289.43188477 309.55810547 C289.26824621 325.62839228 289.17632033 341.69693708 289.1652832 357.76806641 C289.16459191 358.7589151 289.16390063 359.7497638 289.16318839 360.77063822 C289.1621751 362.25436113 289.1621751 362.25436113 289.16114134 363.76805824 C289.15975468 365.75969885 289.15833507 367.75133944 289.15688229 369.74298 C289.1561707 370.72521631 289.15545911 371.70745262 289.15472597 372.71945366 C289.1405783 388.04593718 289.05970029 403.37215419 288.97254647 418.69836966 C288.94187914 424.25056718 288.92139793 429.8026955 288.90836184 435.35496115 C288.88755173 444.15731145 288.8382027 452.95842836 288.72863477 461.76016068 C288.67912999 465.78144559 288.64362469 469.80150508 288.64676285 473.82312393 C288.64909253 477.50461481 288.60984054 481.18322882 288.53724224 484.86398316 C288.50911884 486.82614998 288.52485483 488.78879387 288.54212993 490.75108618 C288.3166797 499.1097237 288.3166797 499.1097237 285.30566609 502.28947079 C283.01961843 503.83848273 280.78187265 505.05190316 278.27783203 506.20678711 C277.21814209 506.84293945 276.15845215 507.4790918 275.06665039 508.13452148 C274.09348877 508.68430664 273.12032715 509.2340918 272.11767578 509.80053711 C271.00714844 510.43088867 269.89662109 511.06124023 268.75244141 511.71069336 C268.17647217 512.03569824 267.60050293 512.36070312 267.00708008 512.69555664 C263.89402125 514.45251122 260.78741486 516.220817 257.68017578 517.98803711 C257.05178802 518.34510742 256.42340027 518.70217773 255.77597046 519.07006836 C249.91650441 522.40339942 244.09363462 525.79789631 238.27783203 529.20678711 C229.68290562 534.23910181 221.05470557 539.21068077 212.40283203 544.14428711 C200.0804162 551.17120487 187.7864475 558.24621248 175.50439453 565.34350586 C172.24259196 567.22713761 168.97921359 569.10801032 165.71533203 570.98803711 C155.26070171 577.01118497 144.81741196 583.05212079 134.40283203 589.14428711 C124.58644746 594.88432132 114.72317709 600.54002048 104.84521484 606.1730957 C93.70914318 612.52440848 82.60435406 618.92929567 71.50439453 625.34350586 C68.24259196 627.22713761 64.97921359 629.10801032 61.71533203 630.98803711 C52.09249571 636.5318374 42.47396165 642.08241353 32.8828125 647.6809082 C30.8787758 648.85065326 28.87391266 650.01898376 26.86816406 651.18579102 C22.12487899 653.94721096 17.39693636 656.72959498 12.69580078 659.56225586 C11.38470337 660.34391113 11.38470337 660.34391113 10.04711914 661.14135742 C8.41294287 662.11625703 6.78443519 663.10074674 5.1628418 664.09643555 C4.44281982 664.5234375 3.72279785 664.95043945 2.98095703 665.39038086 C2.35866211 665.76735107 1.73636719 666.14432129 1.09521484 666.53271484 C-1.31311172 667.42596977 -2.32746969 667.10769094 -4.72216797 666.20678711 C-6.5002988 665.31745904 -8.25200483 664.37453285 -9.98388672 663.39819336 C-11.01118896 662.82141846 -12.03849121 662.24464355 -13.09692383 661.65039062 C-14.19012939 661.02962646 -15.28333496 660.4088623 -16.40966797 659.76928711 C-17.54090088 659.13112061 -18.67213379 658.4929541 -19.83764648 657.83544922 C-26.64225178 653.98604212 -33.41302194 650.08445841 -40.13720703 646.09643555 C-46.44913091 642.3537018 -52.8014886 638.68280728 -59.15966797 635.01928711 C-60.26689209 634.38128174 -61.37411621 633.74327637 -62.51489258 633.0859375 C-64.78553864 631.77789234 -67.05629155 630.47003263 -69.32714844 629.16235352 C-74.79386777 626.01346657 -80.25791684 622.85995447 -85.72216797 619.70678711 C-87.88882108 618.45676361 -90.05548776 617.20676364 -92.22216797 615.95678711 C-96.5555013 613.45678711 -100.88883464 610.95678711 -105.22216797 608.45678711 C-106.2948291 607.83795654 -107.36749023 607.21912598 -108.47265625 606.58154297 C-110.63773868 605.33243193 -112.80277779 604.08324582 -114.96777344 602.83398438 C-120.40832503 599.69476402 -125.84964013 596.55688148 -131.29248047 593.42163086 C-141.74422996 587.39931382 -152.18516345 581.36009374 -162.59716797 575.26928711 C-171.8654703 569.84856694 -181.1768116 564.50619028 -190.50558472 559.19058228 C-199.74939706 553.92220077 -208.95368776 548.58915873 -218.13623047 543.21459961 C-224.47668216 539.50683213 -230.83905244 535.84056866 -237.22216797 532.20678711 C-245.8051563 527.31985375 -254.3450872 522.36201589 -262.87084961 517.37597656 C-267.71690676 514.54214773 -272.56629371 511.71475298 -277.42919922 508.90991211 C-278.31397949 508.39952393 -279.19875977 507.88913574 -280.11035156 507.36328125 C-281.77266887 506.40540314 -283.43572074 505.44879834 -285.09960938 504.49365234 C-290.61303819 501.31591689 -290.61303819 501.31591689 -291.72216797 500.20678711 C-291.81960285 498.42923307 -291.8458823 496.64775981 -291.8452158 494.8675375 C-291.84720685 493.70209233 -291.84919789 492.53664716 -291.85124928 491.33588547 C-291.84688002 489.39088963 -291.84688002 489.39088963 -291.84242249 487.40660095 C-291.84285807 486.02805437 -291.84373273 484.64950788 -291.84501165 483.27096182 C-291.8472592 479.46508504 -291.8432318 475.65923614 -291.83823359 471.85336292 C-291.83393298 467.75586436 -291.83537524 463.65836749 -291.83613586 459.56086731 C-291.83666135 452.45578066 -291.83351201 445.35070317 -291.82789803 438.24561882 C-291.81978631 427.97273828 -291.81716814 417.69986218 -291.81591003 407.42697877 C-291.813719 390.76170079 -291.80705751 374.09642768 -291.79760742 357.43115234 C-291.78843464 341.23811874 -291.78135315 325.04508646 -291.77709961 308.85205078 C-291.77683689 307.85465698 -291.77657416 306.85726318 -291.77630348 305.82964533 C-291.77499848 300.82623617 -291.77373476 295.82282701 -291.77249157 290.81941783 C-291.76211735 249.28187086 -291.74449763 207.74432926 -291.72216797 166.20678711 C-129.22216796 72.45678711 -129.22216796 72.45678711 -125.97167969 70.58154297 C-123.80659726 69.33243193 -121.64155815 68.08324582 -119.4765625 66.83398438 C-114.03601091 63.69476402 -108.59469581 60.55688148 -103.15185547 57.42163086 C-92.70010597 51.39931382 -82.25917249 45.36009374 -71.84716797 39.26928711 C-62.58418103 33.85167574 -53.27801768 28.5126729 -43.9548645 23.199646 C-24.1088696 12.54557459 -24.1088696 12.54557459 -5.27612305 0.3815918 C-2.72216797 -0.79321289 -2.72216797 -0.79321289 0 0 Z " fill="#FEFEFE" transform="translate(1660.72216796875,630.793212890625)"/>
<path d="M0 0 C2.87200108 1.36844253 5.61881835 2.85771071 8.37695312 4.44384766 C9.49038086 5.08209473 10.60380859 5.7203418 11.75097656 6.37792969 C12.95578351 7.07298523 14.16053466 7.76813751 15.36523438 8.46337891 C16.6206211 9.1848264 17.87615729 9.90601384 19.13183594 10.62695312 C22.3589373 12.48090831 25.58369851 14.33889355 28.80780029 16.19805908 C30.58694363 17.22354761 32.36677487 18.24782762 34.14697266 19.27148438 C45.63866048 25.87950101 57.10988109 32.52115842 68.55273438 39.21337891 C77.19060759 44.26416907 85.86092989 49.25612193 94.55273438 54.21337891 C112.97097963 64.71834015 131.3364442 75.31227241 149.64404297 86.0090332 C160.20703399 92.17698199 170.80500793 98.28386902 181.40429688 104.38916016 C184.64248598 106.2555627 187.87912875 108.12461653 191.11523438 109.99462891 C201.73669032 116.1310759 212.36882445 122.24770118 223.02459717 128.3243103 C235.27340977 135.30978715 247.47312085 142.37561234 259.64111328 149.50097656 C262.91458158 151.41431589 266.1922193 153.32036603 269.47070312 155.22509766 C270.58219727 155.87140137 271.69369141 156.51770508 272.83886719 157.18359375 C274.98470674 158.43112282 277.13116822 159.6775829 279.27832031 160.92285156 C280.23383789 161.4789209 281.18935547 162.03499023 282.17382812 162.60791016 C283.02130615 163.10009033 283.86878418 163.59227051 284.74194336 164.09936523 C286.67773438 165.27587891 286.67773438 165.27587891 287.67773438 166.27587891 C287.77517917 168.0586446 287.80144866 169.84531917 287.8007822 171.63074589 C287.80277325 172.79967445 287.8047643 173.96860302 287.80681568 175.17295367 C287.80390284 176.4735085 287.80099 177.77406334 287.79798889 179.11402893 C287.79842447 180.49670031 287.79929913 181.87937161 287.80057806 183.26204246 C287.80282561 187.07932078 287.7987982 190.89657131 287.7938 194.71384609 C287.78949939 198.8236147 287.79094164 202.93338163 287.79170227 207.04315186 C287.79222776 214.16951942 287.78907841 221.29587785 287.78346443 228.42224312 C287.77535273 238.72589275 287.77273455 249.02953795 287.77147644 259.33319043 C287.7692854 276.04838272 287.76262391 292.76357013 287.75317383 309.47875977 C287.74400105 325.72029598 287.73691956 341.96183087 287.73266602 358.20336914 C287.73240329 359.20374994 287.73214057 360.20413073 287.73186988 361.2348261 C287.73056489 366.25321932 287.72930117 371.27161256 287.72805798 376.2900058 C287.71768375 417.95196689 287.70006403 459.61392262 287.67773438 501.27587891 C286.49969238 501.94792358 286.49969238 501.94792358 285.29785156 502.63354492 C282.3229809 504.33100455 279.34840889 506.02898533 276.37402344 507.72729492 C275.09809702 508.45568694 273.82205928 509.18388401 272.54589844 509.91186523 C264.2303268 514.65566969 255.93811105 519.43633381 247.67773438 524.27587891 C239.08144304 529.30587638 230.45454865 534.27961874 221.80273438 539.21337891 C203.38431902 549.71803663 185.01902039 560.31227484 166.71142578 571.0090332 C156.14843476 577.17698199 145.55046082 583.28386902 134.95117188 589.38916016 C131.71298277 591.2555627 128.47634 593.12461653 125.24023438 594.99462891 C114.61895576 601.13097345 103.98700474 607.24750854 93.3314209 613.32403564 C83.059262 619.18200726 72.81744325 625.08877738 62.61035156 631.05957031 C54.28447307 635.92851316 45.93682508 640.75890633 37.57714844 645.56958008 C32.45395007 648.51800311 27.33429828 651.47190434 22.22952271 654.45210266 C19.83279914 655.85097282 17.43401473 657.24628782 15.03509521 658.64138794 C13.33861291 659.62997157 11.6451017 660.62364819 9.95166016 661.61743164 C8.92540527 662.21370361 7.89915039 662.80997559 6.84179688 663.42431641 C5.93896973 663.95202637 5.03614258 664.47973633 4.10595703 665.0234375 C0.06307082 667.10869853 0.06307082 667.10869853 -2.32226562 667.27587891 C-4.93408203 666.15869141 -4.93408203 666.15869141 -7.92382812 664.40087891 C-9.04031738 663.75304443 -10.15680664 663.10520996 -11.30712891 662.43774414 C-12.52060578 661.71728738 -13.73398203 660.99666111 -14.94726562 660.27587891 C-16.20811324 659.53906967 -17.46968034 658.80349038 -18.73193359 658.0690918 C-21.33199243 656.55429478 -23.92819096 655.0331851 -26.52148438 653.50683594 C-31.08456587 650.82373132 -35.67227893 648.18397031 -40.26123047 645.54541016 C-43.4740728 643.69796427 -46.68376511 641.84515708 -49.89257812 639.99072266 C-56.36736584 636.24936235 -62.84462906 632.51230408 -69.32226562 628.77587891 C-71.48894313 627.52589769 -73.6556098 626.2758977 -75.82226562 625.02587891 C-77.43101562 624.09775391 -77.43101562 624.09775391 -79.07226562 623.15087891 C-108.32226562 606.27587891 -137.57226562 589.40087891 -166.82226562 572.52587891 C-167.89492676 571.90704834 -168.96758789 571.28821777 -170.07275391 570.65063477 C-172.23783633 569.40152373 -174.40287545 568.15233761 -176.56787109 566.90307617 C-182.00842268 563.76385581 -187.44973778 560.62597328 -192.89257812 557.49072266 C-203.34432762 551.46840562 -213.7852611 545.42918553 -224.19726562 539.33837891 C-233.4591983 533.92138414 -242.76378376 528.58201187 -252.08654785 523.27075195 C-261.77313008 517.7511439 -271.41796858 512.16433236 -281.03710938 506.52783203 C-281.96910156 505.98191406 -282.90109375 505.43599609 -283.86132812 504.87353516 C-284.67811035 504.39408447 -285.49489258 503.91463379 -286.33642578 503.4206543 C-287.64354137 502.6671425 -288.97279723 501.9506131 -290.32226562 501.27587891 C-290.61978949 458.73527101 -290.84887447 416.19478311 -290.98611491 373.653341 C-291.00237419 368.6315225 -291.01920037 363.60970606 -291.03637695 358.58789062 C-291.03978699 357.58813316 -291.04319702 356.58837569 -291.04671039 355.55832255 C-291.10328548 339.36799302 -291.20578828 323.17826326 -291.32525197 306.98828959 C-291.44680188 290.3771061 -291.51902516 273.76623681 -291.54541606 257.15462685 C-291.56325878 246.90309157 -291.61961601 236.65325141 -291.72517969 226.40223795 C-291.79387438 219.37364011 -291.81467334 212.34591907 -291.79778353 205.31700987 C-291.78945112 201.26027241 -291.80225438 197.20649682 -291.8719368 193.15028572 C-291.93531503 189.43388018 -291.93835464 185.72241867 -291.89395126 182.00578308 C-291.88587367 180.02906147 -291.94187682 178.05239672 -292.00032264 176.07652283 C-291.91956247 172.38583292 -291.71212501 169.70095147 -290.32226562 166.27587891 C-286.3414906 162.7022284 -282.15393521 160.58557155 -277.32226562 158.27587891 C-275.15315856 157.04015787 -272.99165687 155.79088319 -270.84179688 154.52197266 C-268.6072686 153.25042045 -266.37155177 151.98095508 -264.13476562 150.71337891 C-261.66408966 149.30822413 -259.19438457 147.90136618 -256.72460938 146.49462891 C-256.10450989 146.14170273 -255.4844104 145.78877655 -254.84552002 145.42515564 C-248.61588478 141.87803835 -242.40476342 138.29908226 -236.19726562 134.71337891 C-235.13354736 134.09906006 -234.0698291 133.48474121 -232.97387695 132.85180664 C-230.82916975 131.61295668 -228.68455682 130.37394349 -226.54003906 129.13476562 C-221.13555917 126.01263286 -215.7287915 122.89446686 -210.32226562 119.77587891 C-208.15558812 118.52589769 -205.98892145 117.2758977 -203.82226562 116.02587891 C-164.82226562 93.52587891 -164.82226562 93.52587891 -161.57177734 91.65063477 C-159.40669492 90.40152373 -157.2416558 89.15233761 -155.07666016 87.90307617 C-149.63610857 84.76385581 -144.19479347 81.62597328 -138.75195312 78.49072266 C-128.30020363 72.46840562 -117.85927015 66.42918553 -107.44726562 60.33837891 C-98.17726785 54.91666713 -88.8639481 49.57382975 -79.53381348 44.25665283 C-70.41741493 39.0599752 -61.33589858 33.80636171 -52.27954102 28.50561523 C-43.69343509 23.48244635 -35.07964265 18.50801198 -26.44604492 13.56689453 C-21.75419375 10.87377554 -17.0893068 8.16598631 -12.52539062 5.26025391 C-11.8326001 4.82302002 -11.13980957 4.38578613 -10.42602539 3.93530273 C-8.66644493 2.81328717 -6.92131728 1.66869013 -5.17773438 0.52197266 C-2.32226562 -0.72412109 -2.32226562 -0.72412109 0 0 Z " fill="#FEFEFE" transform="translate(1001.322265625,630.72412109375)"/>
<path d="M0 0 C3.71032276 1.08648205 6.93246247 3.0113113 10.26171875 4.94921875 C11.28458984 5.5421875 12.30746094 6.13515625 13.36132812 6.74609375 C14.45896484 7.38675781 15.55660156 8.02742188 16.6875 8.6875 C17.84940348 9.3623338 19.01151671 10.03680656 20.17382812 10.7109375 C22.5872404 12.11107089 24.9997446 13.51275019 27.41162109 14.91552734 C32.93267071 18.12491268 38.46701601 21.31125063 44 24.5 C46.16672909 25.7498918 48.33339556 26.99989215 50.5 28.25 C52.10875 29.178125 52.10875 29.178125 53.75 30.125 C57 32 60.25 33.875 63.5 35.75 C64.57266113 36.36883057 65.64532227 36.98766113 66.75048828 37.62524414 C68.91557071 38.87435518 71.08060982 40.12354129 73.24560547 41.37280273 C78.68615706 44.51202309 84.12747216 47.64990563 89.5703125 50.78515625 C100.02206199 56.80747329 110.46299548 62.84669337 120.875 68.9375 C130.14563931 74.35958699 139.45936699 79.70324012 148.79046631 85.02023315 C157.86778636 90.19378787 166.90571533 95.43142154 175.921875 100.7109375 C183.58573974 105.19166265 191.28685835 109.60494224 199 114 C208.72124506 119.53985933 218.40894868 125.13374932 228.06689453 130.78344727 C235.32211788 135.02617309 242.59358549 139.23988899 249.875 143.4375 C250.93726807 144.05004639 251.99953613 144.66259277 253.09399414 145.29370117 C258.23605965 148.25766791 263.37972883 151.21882468 268.52557373 154.17622375 C270.95334268 155.57181471 273.38043248 156.96858415 275.80743408 158.36550903 C277.53418688 159.35871466 279.26195832 160.35014865 280.98974609 161.34155273 C282.02566895 161.93782471 283.0615918 162.53409668 284.12890625 163.1484375 C285.04744385 163.67614746 285.96598145 164.20385742 286.91235352 164.74755859 C289 166 289 166 290 167 C290.09744479 168.7827657 290.12371428 170.56944026 290.12304783 172.35486698 C290.12503888 173.52379555 290.12702993 174.69272411 290.12908131 175.89707476 C290.12616847 177.1976296 290.12325563 178.49818443 290.12025452 179.83815002 C290.1206901 181.2208214 290.12156476 182.6034927 290.12284368 183.98616356 C290.12509124 187.80344188 290.12106382 191.62069241 290.11606562 195.43796718 C290.11176502 199.5477358 290.11320727 203.65750272 290.1139679 207.76727295 C290.11449338 214.89364051 290.11134404 222.01999895 290.10573006 229.14636421 C290.09761835 239.45001385 290.09500018 249.75365905 290.09374207 260.05731153 C290.09155103 276.77250381 290.08488954 293.48769122 290.07543945 310.20288086 C290.06626668 326.44441707 290.05918519 342.68595196 290.05493164 358.92749023 C290.05466892 359.92787103 290.05440619 360.92825182 290.05413551 361.95894719 C290.05283051 366.97734042 290.0515668 371.99573365 290.05032361 377.0141269 C290.03994938 418.67608799 290.02232965 460.33804371 290 502 C289.4862702 502.28472357 288.9725404 502.56944714 288.44324303 502.86279869 C286.08735162 504.16889949 283.73190542 505.47580121 281.37646484 506.78271484 C280.56841904 507.23053818 279.76037323 507.67836151 278.92784119 508.13975525 C272.77778254 511.55319895 266.68434042 515.05289975 260.625 518.625 C251.7837872 523.81015861 242.90576314 528.92689019 234 534 C224.27856294 539.53951839 214.59104683 545.13375194 204.93310547 550.78344727 C194.40915375 556.93766742 183.84619863 563.02369996 173.28222656 569.10888672 C167.85340058 572.23680148 162.42680719 575.36858448 157 578.5 C154.83334417 579.75001879 152.6666775 581.00001878 150.5 582.25 C148.89125 583.178125 148.89125 583.178125 147.25 584.125 C59.49999997 634.75000001 59.49999997 634.75000001 56.24658203 636.62695312 C54.09128689 637.8704051 51.93601327 639.11389436 49.78076172 640.35742188 C44.77662326 643.24462875 39.7722948 646.1315043 34.76715088 649.01696777 C33.01658759 650.02619104 31.26609589 651.03553836 29.515625 652.04492188 C27.33607835 653.3016766 25.15640168 654.55820586 22.9765625 655.81445312 C21.97625 656.39130859 20.9759375 656.96816406 19.9453125 657.5625 C18.96852539 658.119375 17.99173828 658.67625 16.98535156 659.25 C14.89298975 660.47653332 12.82891001 661.75200427 10.78808594 663.0625 C9.74168945 663.7225 8.69529297 664.3825 7.6171875 665.0625 C6.68245605 665.67222656 5.74772461 666.28195312 4.78466797 666.91015625 C2 668 2 668 -1.00512695 667.37451172 C-3.9508072 666.02257728 -6.73880706 664.58397166 -9.53515625 662.9453125 C-10.5811499 662.33655273 -11.62714355 661.72779297 -12.70483398 661.10058594 C-13.81286377 660.44864258 -14.92089355 659.79669922 -16.0625 659.125 C-17.22758122 658.44501269 -18.39303209 657.76565836 -19.55883789 657.08691406 C-21.33270395 656.05399865 -23.10631065 655.02066363 -24.87870789 653.98522949 C-30.2109922 650.87026051 -35.57051286 647.80464747 -40.9375 644.75 C-54.52665656 636.99796887 -68.05287501 629.13965606 -81.5625 621.25 C-93.25941782 614.41968987 -104.98933875 607.64747115 -116.7265625 600.88671875 C-119.9647516 599.0203162 -123.20139438 597.15126237 -126.4375 595.28125 C-137.05877862 589.14490546 -147.69072963 583.02837037 -158.34631348 576.95184326 C-168.61847237 571.09387165 -178.86029113 565.18710152 -189.06738281 559.21630859 C-199.59394144 553.06041616 -210.15980716 546.97327022 -220.7265625 540.88671875 C-223.9647516 539.0203162 -227.20139438 537.15126237 -230.4375 535.28125 C-239.45106468 530.07380758 -248.46635312 524.86982828 -257.5078125 519.7109375 C-258.13517303 519.3529155 -258.76253357 518.99489349 -259.40890503 518.62602234 C-262.43417222 516.89999059 -265.46030302 515.17549909 -268.48779297 513.45336914 C-269.58494629 512.82809326 -270.68209961 512.20281738 -271.8125 511.55859375 C-272.76769531 511.01517334 -273.72289062 510.47175293 -274.70703125 509.91186523 C-275.79371094 509.28094971 -276.88039063 508.65003418 -278 508 C-278.81334204 507.66071205 -279.62668409 507.32142409 -280.46467286 506.97185469 C-283.42195735 505.57895964 -285.62608702 504.25905442 -288 502 C-289.50760432 497.56138614 -289.34654895 493.25370369 -289.2631073 488.60095215 C-289.27391777 487.21820226 -289.28909057 485.83548078 -289.30824167 484.45282125 C-289.34804587 480.65757598 -289.32549106 476.8648762 -289.29258764 473.06965899 C-289.26790947 468.97538611 -289.30079543 464.88151928 -289.3263092 460.78730774 C-289.36693686 452.76865403 -289.35359587 444.75095526 -289.32115778 436.73229849 C-289.29584681 430.21592327 -289.2904133 423.69981159 -289.29921913 417.18339539 C-289.30046274 416.25619465 -289.30170635 415.32899391 -289.30298764 414.37369618 C-289.30561258 412.4901447 -289.308289 410.60659329 -289.31101636 408.72304195 C-289.33436347 391.05802896 -289.29717052 373.39354207 -289.23879681 355.72863573 C-289.19003187 340.56903761 -289.19076497 325.41011036 -289.22827148 310.25048828 C-289.27178373 292.64905871 -289.28636639 275.0480149 -289.25349981 257.44654894 C-289.25006265 255.56990089 -289.24665607 253.69325278 -289.24328041 251.81660461 C-289.24159694 250.89324187 -289.23991348 249.96987913 -289.23817899 249.0185357 C-289.22825297 242.50948398 -289.23885517 236.00065008 -289.25722313 229.49162292 C-289.27897138 221.55978255 -289.2684589 213.62876282 -289.21664437 205.69704902 C-289.19099023 201.64934468 -289.17973672 197.60296762 -289.20743179 193.55524635 C-289.23236411 189.84966876 -289.21576292 186.14668818 -289.16596285 182.44138271 C-289.15011708 180.46577106 -289.17846534 178.48995784 -289.20835274 176.51450872 C-289.03605653 168.10812687 -289.03605653 168.10812687 -286.05953848 164.92455578 C-283.76293873 163.36391585 -281.51981502 162.15772763 -279 161 C-277.67043833 160.24896433 -276.34520639 159.49012985 -275.02734375 158.71875 C-273.66571265 157.97613299 -272.30235109 157.23668227 -270.9375 156.5 C-263.76524171 152.5709288 -256.67903904 148.512348 -249.625 144.375 C-240.78264438 139.19177087 -231.90578309 134.07312118 -223 129 C-213.27856294 123.46048161 -203.59104683 117.86624806 -193.93310547 112.21655273 C-183.40915375 106.06233258 -172.84619863 99.97630004 -162.28222656 93.89111328 C-156.85340058 90.76319852 -151.42680719 87.63141552 -146 84.5 C-143.83334417 83.24998121 -141.6666775 81.99998122 -139.5 80.75 C-138.4275 80.13125 -137.355 79.5125 -136.25 78.875 C-126.5 73.25 -126.5 73.25 -123.24951172 71.37475586 C-121.08442929 70.12564482 -118.91939018 68.87645871 -116.75439453 67.62719727 C-111.31384294 64.48797691 -105.87252784 61.35009437 -100.4296875 58.21484375 C-89.97793721 52.19252625 -79.53706885 46.15319743 -69.125 40.0625 C-60.48718021 35.01161994 -51.81681694 30.01973318 -43.125 25.0625 C-34.12971924 19.93210162 -25.13967247 14.79306316 -16.16766357 9.62203979 C-14.47367061 8.645844 -12.77907806 7.6706889 -11.08447266 6.69555664 C-10.06530762 6.10766357 -9.04614258 5.51977051 -7.99609375 4.9140625 C-6.65309204 4.1398999 -6.65309204 4.1398999 -5.28295898 3.35009766 C-3.48811936 2.28866432 -1.73499745 1.15666497 0 0 Z " fill="#FEFEFE" transform="translate(1329,52)"/>
<path d="M0 0 C0.82798096 0.45592529 1.65596191 0.91185059 2.5090332 1.3815918 C3.408396 1.86265381 4.30775879 2.34371582 5.234375 2.83935547 C6.21575439 3.40372314 7.19713379 3.96809082 8.20825195 4.54956055 C9.87815186 5.5068103 9.87815186 5.5068103 11.58178711 6.48339844 C12.78675003 7.17854714 13.9916641 7.8737805 15.1965332 8.5690918 C16.45338119 9.29127797 17.71038232 10.0131977 18.9675293 10.73486328 C22.19540468 12.58902247 25.42092669 14.44723133 28.64556885 16.30700684 C31.50428525 17.95551363 34.36421775 19.60190867 37.22387695 21.2487793 C42.58181429 24.33638356 47.93695821 27.42880113 53.29125977 30.52270508 C58.69573966 33.64483785 64.10250732 36.76300384 69.5090332 39.8815918 C71.67571071 41.13157301 73.84237738 42.38157301 76.0090332 43.6315918 C77.6177832 44.5597168 77.6177832 44.5597168 79.2590332 45.5065918 C117.17569987 67.3815918 155.09236654 89.2565918 193.0090332 111.1315918 C194.08169434 111.75042236 195.15435547 112.36925293 196.25952148 113.00683594 C198.42460391 114.25594698 200.58964303 115.50513309 202.75463867 116.75439453 C208.19519026 119.89361489 213.63650536 123.03149742 219.0793457 126.16674805 C231.57052639 133.36390579 244.04324357 140.5913845 256.48950195 147.8659668 C260.75941928 150.36163914 265.03343668 152.85013099 269.30981445 155.3347168 C270.42018066 155.98045654 271.53054688 156.62619629 272.67456055 157.29150391 C274.81872816 158.5382953 276.96356133 159.78394299 279.10913086 161.02832031 C280.54264893 161.86254517 280.54264893 161.86254517 282.00512695 162.71362305 C282.85260498 163.20580322 283.70008301 163.6979834 284.57324219 164.20507812 C286.5090332 165.3815918 286.5090332 165.3815918 287.5090332 166.3815918 C287.61456701 168.15330221 287.64932271 169.92924836 287.65722084 171.70408154 C287.66853285 173.446699 287.66853285 173.446699 287.68007338 175.22452086 C287.68329962 176.51709203 287.68652585 177.8096632 287.68984985 179.1414032 C287.69672305 180.5156755 287.70401133 181.88994578 287.71168172 183.26421386 C287.73148458 187.05848618 287.74482528 190.85275831 287.75703025 194.64706171 C287.76827778 197.89715448 287.78321568 201.14722613 287.79815336 204.39730372 C287.93923466 235.19709856 288.00456611 265.99736997 288.05747414 296.79742718 C288.06448344 300.80749724 288.07161037 304.81756708 288.07885742 308.82763672 C288.08155036 310.32272567 288.08155036 310.32272567 288.0842977 311.84801845 C288.11436985 327.99744964 288.17913875 344.14655572 288.25754388 360.2958168 C288.33732004 376.86411258 288.38314756 393.43223984 288.39649999 410.00072414 C288.40491696 419.30818479 288.42874967 428.6150693 288.49116898 437.92233849 C288.54429694 445.84865602 288.56715292 453.7743165 288.5500588 461.700807 C288.54229589 465.74656062 288.5492301 469.79090082 288.59534073 473.8364296 C288.63722441 477.54017705 288.63760914 481.24152198 288.60491054 484.94534049 C288.59827644 486.92033763 288.63608099 488.89532939 288.67542708 490.8699457 C288.5428265 499.27390914 288.5428265 499.27390914 285.57227206 502.45678103 C283.27452924 504.0182389 281.03046334 505.22402089 278.5090332 506.3815918 C277.17944119 507.13257375 275.854202 507.89139772 274.53637695 508.6628418 C273.1747395 509.40544715 271.81137901 510.14489972 270.4465332 510.8815918 C263.23402162 514.83337083 256.10509888 518.91200557 249.0090332 523.0690918 C240.56634713 528.01327447 232.11099786 532.93387773 223.6340332 537.8190918 C222.55444336 538.44130615 221.47485352 539.06352051 220.36254883 539.70458984 C218.172208 540.96670696 215.98177818 542.22866965 213.79125977 543.49047852 C208.36243378 546.61839328 202.93584039 549.75017628 197.5090332 552.8815918 C195.34237738 554.13161059 193.17571071 555.38161058 191.0090332 556.6315918 C189.4002832 557.5597168 189.4002832 557.5597168 187.7590332 558.5065918 C126.00903321 594.13159179 126.00903321 594.13159179 122.75854492 596.00683594 C120.5934625 597.25594698 118.42842338 598.50513309 116.26342773 599.75439453 C110.82287614 602.89361489 105.38156105 606.03149742 99.9387207 609.16674805 C89.48697041 615.18906554 79.04610205 621.22839437 68.6340332 627.3190918 C58.83328341 633.04998372 48.9877599 638.70039548 39.12255859 644.31933594 C33.11216464 647.7439216 27.11166998 651.1841582 21.13012695 654.65893555 C20.5328479 655.00546677 19.93556885 655.35199799 19.32019043 655.70903015 C16.46757797 657.36414028 13.6168584 659.02225016 10.76928711 660.68603516 C9.75656738 661.27392822 8.74384766 661.86182129 7.70043945 662.4675293 C6.81557861 662.9836377 5.93071777 663.49974609 5.01904297 664.03149414 C3.77658813 664.69979248 3.77658813 664.69979248 2.5090332 665.3815918 C1.69450684 665.82897705 0.87998047 666.2763623 0.04077148 666.73730469 C-2.4909668 667.3815918 -2.4909668 667.3815918 -5.21630859 666.37792969 C-6.19768799 665.79261475 -7.17906738 665.2072998 -8.19018555 664.60424805 C-9.30361328 663.95311035 -10.41704102 663.30197266 -11.56420898 662.63110352 C-12.76910313 661.90233357 -13.97385195 661.17332332 -15.1784668 660.4440918 C-16.43292633 659.70285006 -17.68847797 658.96345373 -18.94506836 658.22583008 C-21.53427547 656.70326117 -24.11784432 655.17173345 -26.69750977 653.63305664 C-32.34012979 650.27398337 -38.04431271 647.02295635 -43.7409668 643.7565918 C-52.95144053 638.44549841 -62.13462049 633.08851028 -71.31225586 627.72094727 C-79.01121513 623.22631752 -86.74564925 618.79559281 -94.4909668 614.3815918 C-104.213546 608.84076352 -113.90236469 603.24555879 -123.56225586 597.59594727 C-139.81528732 588.09305838 -156.14003368 578.71480663 -172.4909668 569.3815918 C-190.86151094 558.89557037 -209.18213836 548.32533692 -227.44628906 537.6550293 C-245.29764189 527.23208112 -263.22301363 516.93691643 -281.18115234 506.69921875 C-284.28540995 504.928404 -287.38802078 503.15470381 -290.4909668 501.3815918 C-290.4909668 390.5015918 -290.4909668 279.6215918 -290.4909668 165.3815918 C-284.5509668 162.0815918 -278.6109668 158.7815918 -272.4909668 155.3815918 C-268.68941493 153.18744059 -264.89673725 150.98543027 -261.1159668 148.7565918 C-252.274754 143.57143318 -243.39672994 138.45470161 -234.4909668 133.3815918 C-224.76952974 127.84207341 -215.08201362 122.24783985 -205.42407227 116.59814453 C-194.90012055 110.44392438 -184.33716542 104.35789184 -173.77319336 98.27270508 C-168.34436737 95.14479031 -162.91777399 92.01300732 -157.4909668 88.8815918 C-155.32431097 87.63157301 -153.1576443 86.38157301 -150.9909668 85.1315918 C-149.9184668 84.5128418 -148.8459668 83.8940918 -147.7409668 83.2565918 C-59.9909668 32.6315918 -59.9909668 32.6315918 -56.73754883 30.75463867 C-54.58225369 29.5111867 -52.42698007 28.26769744 -50.27172852 27.02416992 C-45.26759006 24.13696305 -40.26326159 21.25008749 -35.25811768 18.36462402 C-33.50755439 17.35540076 -31.75706269 16.34605343 -30.0065918 15.33666992 C-27.82704515 14.0799152 -25.64736847 12.82338594 -23.4675293 11.56713867 C-21.96706055 10.70185547 -21.96706055 10.70185547 -20.4362793 9.8190918 C-19.46078125 9.2622168 -18.4852832 8.7053418 -17.48022461 8.1315918 C-15.37758461 6.90064411 -13.30053665 5.62544489 -11.24389648 4.3190918 C-10.18847656 3.6590918 -9.13305664 2.9990918 -8.0456543 2.3190918 C-7.09932129 1.70936523 -6.15298828 1.09963867 -5.17797852 0.47143555 C-2.4909668 -0.6184082 -2.4909668 -0.6184082 0 0 Z " fill="#FEFEFE" transform="translate(1331.490966796875,1208.618408203125)"/>
<path d="M0 0 C2.89669 1.38031787 5.66860557 2.88340891 8.45166016 4.48120117 C9.57507813 5.12444336 10.69849609 5.76768555 11.85595703 6.43041992 C13.06891386 7.12952383 14.28180275 7.82874561 15.49462891 8.52807617 C16.75818994 9.25352968 18.02186338 9.97878743 19.28564453 10.70385742 C28.08144074 15.75587925 36.84592628 20.86104767 45.59936523 25.98608398 C53.26456289 30.46815251 60.96739995 34.88211395 68.68212891 39.27807617 C78.40337396 44.8179355 88.09107759 50.41182549 97.74902344 56.06152344 C108.27297515 62.21574359 118.83593028 68.30177613 129.39990234 74.38696289 C134.82872833 77.51487765 140.25532172 80.64666065 145.68212891 83.77807617 C147.84878473 85.02809496 150.0154514 86.27809496 152.18212891 87.52807617 C165.18212891 95.02807617 165.18212891 95.02807617 168.43164062 96.90283203 C170.59989155 98.15372097 172.76818587 99.40453469 174.93652344 100.65527344 C180.32930806 103.76605952 185.72134984 106.87811855 191.11181641 109.99291992 C201.73616627 116.13016192 212.37069572 122.24845951 223.0289917 128.32650757 C235.2778043 135.31198441 247.47751538 142.37780961 259.64550781 149.50317383 C262.91897611 151.41651315 266.19661383 153.3225633 269.47509766 155.22729492 C270.5865918 155.87359863 271.69808594 156.51990234 272.84326172 157.18579102 C274.98910127 158.43332009 277.13556275 159.67978016 279.28271484 160.92504883 C280.23823242 161.48111816 281.19375 162.0371875 282.17822266 162.61010742 C283.02570068 163.1022876 283.87317871 163.59446777 284.74633789 164.1015625 C286.68212891 165.27807617 286.68212891 165.27807617 287.68212891 166.27807617 C287.7795737 168.06084187 287.80584319 169.84751643 287.80517673 171.63294315 C287.80716778 172.80187172 287.80915883 173.97080029 287.81121022 175.17515093 C287.80829737 176.47570577 287.80538453 177.77626061 287.80238342 179.1162262 C287.802819 180.49889757 287.80369367 181.88156887 287.80497259 183.26423973 C287.80722014 187.08151805 287.80319273 190.89876858 287.79819453 194.71604335 C287.79389393 198.82581197 287.79533617 202.93557889 287.7960968 207.04534912 C287.79662229 214.17171668 287.79347294 221.29807512 287.78785896 228.42444038 C287.77974726 238.72809002 287.77712908 249.03173522 287.77587097 259.3353877 C287.77367993 276.05057998 287.76701844 292.76576739 287.75756836 309.48095703 C287.74839558 325.72249324 287.74131409 341.96402813 287.73706055 358.20556641 C287.73679782 359.2059472 287.7365351 360.206328 287.73626442 361.23702336 C287.73495942 366.25541659 287.7336957 371.27380983 287.73245251 376.29220307 C287.72207828 417.95416416 287.70445856 459.61611989 287.68212891 501.27807617 C287.01985951 501.65196032 286.35759012 502.02584446 285.67525196 502.41105843 C282.6478094 504.12045694 279.62065537 505.83036579 276.59350586 507.5402832 C275.55166389 508.12844315 274.50982193 508.71660309 273.436409 509.32258606 C266.5489751 513.21364034 259.6882531 517.14253818 252.86962891 521.15307617 C241.26397749 527.94908335 229.618182 534.673985 217.96435547 541.38696289 C212.53552948 544.51487765 207.10893609 547.64666065 201.68212891 550.77807617 C199.51547308 552.02809496 197.34880641 553.27809496 195.18212891 554.52807617 C193.57337891 555.45620117 193.57337891 555.45620117 191.93212891 556.40307617 C182.18212891 562.02807617 182.18212891 562.02807617 178.93164062 563.90332031 C176.7665582 565.15243135 174.60151908 566.40161746 172.43652344 567.65087891 C166.99597185 570.79009927 161.55465675 573.9279818 156.11181641 577.06323242 C145.66006611 583.08554992 135.21919775 589.12487875 124.80712891 595.21557617 C116.1693089 600.26645636 107.49893251 605.25831971 98.80712891 610.21557617 C80.40142783 620.71338277 62.04870372 631.30047153 43.75317383 641.98925781 C36.0955576 646.46037281 28.42400785 650.90698572 20.74462891 655.34057617 C19.67277344 655.9599707 18.60091797 656.57936523 17.49658203 657.2175293 C15.48560762 658.37736482 13.47096903 659.53087808 11.45214844 660.67700195 C9.66099497 661.71229055 7.88899185 662.78177386 6.14257812 663.89086914 C0.52076512 667.36533967 0.52076512 667.36533967 -3.20849609 666.97729492 C-7.87883087 664.42503911 -12.49686249 661.81769518 -17.06787109 659.09057617 C-19.23154658 657.81387839 -21.39562275 656.53785947 -23.56005859 655.26245117 C-24.67606445 654.6030957 -25.79207031 653.94374023 -26.94189453 653.2644043 C-32.33913439 650.08882262 -37.7655111 646.96431057 -43.19287109 643.84057617 C-45.37778485 642.58149269 -47.56268059 641.32237794 -49.74755859 640.06323242 C-50.83262695 639.43819824 -51.91769531 638.81316406 -53.03564453 638.16918945 C-58.46447052 635.04127469 -63.89106391 631.90949169 -69.31787109 628.77807617 C-71.48452692 627.52805738 -73.65119359 626.27805739 -75.81787109 625.02807617 C-147.31787109 583.77807617 -218.81787109 542.52807617 -290.31787109 501.27807617 C-290.61539496 458.73746828 -290.84447994 416.19698037 -290.98172038 373.65553826 C-290.99797966 368.63371977 -291.01480584 363.61190333 -291.03198242 358.59008789 C-291.03539246 357.59033043 -291.03880249 356.59057296 -291.04231586 355.56051981 C-291.09889095 339.37019028 -291.20139375 323.18046052 -291.32085744 306.99048686 C-291.44240734 290.37930337 -291.51463063 273.76843408 -291.54102153 257.15682411 C-291.55886424 246.90528884 -291.61522148 236.65544867 -291.72078516 226.40443522 C-291.78947984 219.37583737 -291.81027881 212.34811634 -291.793389 205.31920713 C-291.78505659 201.26246968 -291.79785984 197.20869409 -291.86754227 193.15248299 C-291.9309205 189.43607745 -291.9339601 185.72461594 -291.88955673 182.00798035 C-291.88147914 180.03125874 -291.93748228 178.05459399 -291.99592811 176.07872009 C-291.91516794 172.38803018 -291.70773048 169.70314874 -290.31787109 166.27807617 C-286.33709607 162.70442567 -282.14954068 160.58776881 -277.31787109 158.27807617 C-275.14876403 157.04235514 -272.98726233 155.79308046 -270.83740234 154.52416992 C-268.60287407 153.25261772 -266.36715724 151.98315235 -264.13037109 150.71557617 C-261.65969512 149.3104214 -259.18999003 147.90356344 -256.72021484 146.49682617 C-256.10011536 146.14389999 -255.48001587 145.79097382 -254.84112549 145.42735291 C-248.61149024 141.88023561 -242.40036889 138.30127953 -236.19287109 134.71557617 C-235.12915283 134.10125732 -234.06543457 133.48693848 -232.96948242 132.85400391 C-230.82477522 131.61515394 -228.68016229 130.37614076 -226.53564453 129.13696289 C-221.1311646 126.0148301 -215.72437003 122.89671091 -210.31787109 119.77807617 C-209.24666016 119.1599707 -208.17544922 118.54186523 -207.07177734 117.9050293 C-201.63141035 114.76585243 -196.19024155 111.62807988 -190.74755859 108.49291992 C-180.2958091 102.47060289 -169.85487561 96.4313828 -159.44287109 90.34057617 C-150.17223179 84.91848919 -140.85850411 79.57483605 -131.52740479 74.25784302 C-123.43079266 69.64323589 -115.35998308 64.98722731 -107.31787109 60.27807617 C-98.68289552 55.22176695 -90.0118079 50.23200495 -81.31787109 45.27807617 C-71.60460549 39.74276411 -61.92379854 34.15523289 -52.27514648 28.5078125 C-43.68904056 23.48464362 -35.07524812 18.51020925 -26.44165039 13.5690918 C-21.74979922 10.8759728 -17.08491227 8.16818358 -12.52099609 5.26245117 C-11.82820557 4.82521729 -11.13541504 4.3879834 -10.42163086 3.9375 C-8.6620504 2.81548443 -6.91692275 1.6708874 -5.17333984 0.52416992 C-2.31787109 -0.72192383 -2.31787109 -0.72192383 0 0 Z " fill="#FEFEFE" transform="translate(342.31787109375,630.721923828125)"/>
</svg>
